<?xml version="1.0" encoding="UTF-8" standalone="no"?>
<!-- Created with Inkscape (http://www.inkscape.org/) -->

<svg
   version="1.1"
   id="svg2"
   width="2800"
   height="2800"
   viewBox="0 0 2800 2800"
   sodipodi:docname="vecteezy_vector-concept-illustration-of-a-man-feeling-sorry-flat_7938807.eps"
   xmlns:inkscape="http://www.inkscape.org/namespaces/inkscape"
   xmlns:sodipodi="http://sodipodi.sourceforge.net/DTD/sodipodi-0.dtd"
   xmlns="http://www.w3.org/2000/svg"
   xmlns:svg="http://www.w3.org/2000/svg">
  <defs
     id="defs6" />
  <sodipodi:namedview
     id="namedview4"
     pagecolor="#ffffff"
     bordercolor="#000000"
     borderopacity="0.25"
     inkscape:showpageshadow="2"
     inkscape:pageopacity="0.0"
     inkscape:pagecheckerboard="0"
     inkscape:deskcolor="#d1d1d1" />
  <g
     id="g8"
     inkscape:groupmode="layer"
     inkscape:label="ink_ext_XXXXXX"
     transform="matrix(1.3333333,0,0,-1.3333333,0,2800)">
    <g
       id="g10"
       transform="scale(0.1)">
      <path
         d="m 19318.1,8084.8 c 0,0 -543.2,-203.3 -1062.1,-716.2 -492.5,-486.8 -762.7,-950.1 -762.7,-950.1 397.1,119.6 774.3,328 1101.2,626.5 326.7,298.3 568.5,655.1 723.6,1039.8"
         style="fill:#f0f2f5;fill-opacity:1;fill-rule:nonzero;stroke:none"
         id="path12" />
      <path
         d="m 17991.3,6306.7 c -300.2,-14.2 -581.2,-95.8 -829,-229.6 259.3,-109.7 546.8,-164.4 846.9,-150.3 300.1,14.2 581.1,95.8 828.9,229.4 -259.3,109.8 -546.7,164.7 -846.8,150.5"
         style="fill:#f0f2f5;fill-opacity:1;fill-rule:nonzero;stroke:none"
         id="path14" />
      <path
         d="m 16901,7855.4 c -59.3,-275.3 -59.3,-567.9 10.8,-860 70.2,-292.2 203.1,-552.9 380.9,-771.3 59.2,275.3 59.1,567.9 -11.1,860.1 -70.1,292.1 -202.9,552.8 -380.6,771.2"
         style="fill:#f0f2f5;fill-opacity:1;fill-rule:nonzero;stroke:none"
         id="path16" />
      <path
         d="m 17942.9,3882 c 346.1,192.2 409.2,408.4 244.2,659.4 -165.1,251.1 -378.4,451.3 -619.7,596.5 0,0 25.4,-416.6 301.9,-805.4 138.2,-194.3 160.4,-337.7 73.6,-450.5"
         style="fill:#f0f2f5;fill-opacity:1;fill-rule:nonzero;stroke:none"
         id="path18" />
      <path
         d="m 17769,5483 c -8,2.2 -15.9,4.5 -24,6.5 l -41,10.8 c -13.7,3.4 -27.5,6.5 -41.3,9.8 l -20.6,4.9 -20.7,4.5 -41.6,8.7 c -55.5,11 -111.3,20.3 -167.3,28.1 -112.2,14.4 -225.2,22.9 -338.3,24.5 -111.9,1.7 -224.1,-2.2 -335.2,-16.3 2.6,3.3 5,6.7 7.6,10 75.5,100 153.6,198.1 234.1,294.2 80.5,96.1 163.4,190.1 248.7,281.9 42.5,46.1 85.8,91.4 129.6,136.2 44,44.7 88.4,89 134.3,131.7 -46.2,-42.4 -90.9,-86.3 -135.2,-130.8 -44.1,-44.5 -87.8,-89.5 -130.6,-135.3 -85.6,-91.6 -168.7,-185.5 -249.5,-281.5 -80.8,-95.9 -159.1,-193.9 -234.9,-293.7 -21.1,-27.8 -42,-55.8 -62.7,-83.8 -4.6,37.6 -10.9,75.2 -19.8,112.1 -9.1,37.9 -19.7,75.5 -32,112.5 -12.6,37 -26,73.6 -41.1,109.5 -15.1,35.9 -31.3,71.5 -49.6,105.9 8.2,-17.7 16.2,-35.5 23.7,-53.4 7.7,-17.9 15,-35.9 22.2,-54 14.2,-36.2 27.7,-72.7 39.8,-109.6 12.6,-36.8 23.2,-74.2 33,-111.8 l 7.1,-28.3 c 2.2,-9.5 4,-19.1 6.1,-28.5 4.4,-18.1 7,-36.4 10.5,-54.6 -53.8,-72.8 -106.3,-146.4 -156.9,-221.4 -17.8,-25.8 -34.9,-52.1 -52.1,-78.3 -17,-26.3 -34.6,-52.3 -51.1,-79 l -50,-79.7 -48.5,-80.6 c -8,-13.4 -16.2,-26.8 -24.1,-40.4 l -23.3,-40.8 -23.3,-40.8 c -7.8,-13.7 -15.7,-27.2 -23,-41 l -44.8,-82.7 -11.2,-20.7 -10.7,-21 -21.5,-41.8 c -29.1,-55.5 -55.5,-112.4 -82.8,-168.9 -13.4,-28.3 -25.8,-57.1 -38.8,-85.7 l -19.2,-42.9 c -6.3,-14.3 -12.1,-28.9 -18.2,-43.4 l -35.8,-86.9 -33.4,-87.9 -16.7,-44 -15.2,-44.5 -19.5,-56.7 h -3.8 c 2.3,77.1 4.9,154.2 8,231.3 7.7,198 17.7,395.9 30,593.7 12.3,197.8 26.9,395.5 43.7,593 10.2,117.5 21.3,235 33.3,352.5 37.7,-24.5 76.9,-45.2 116.4,-58.9 261.3,-90.2 543.1,16.5 543.1,16.5 -120.2,117.6 -268,210.7 -438,268.3 -63.7,21.6 -128,37.3 -192.3,47.5 l 12.8,113.3 18.1,147.6 c 1.3,11.3 2.9,22.5 4.3,33.8 243.2,-257.5 502.1,-369.3 502.1,-369.3 -54.7,276.2 -170.6,544.8 -350.8,785.3 -25.8,34.5 -52.5,64.1 -80.2,89.1 l 7.7,49.7 11.5,73.4 12.4,73.3 12.3,73.3 c 4.1,24.4 8.1,48.9 12.7,73.2 l 26.6,146.3 c 4.4,24.4 9.2,48.7 14,73 l 14.4,72.9 14.3,72.9 c 4.8,24.3 10.3,48.4 15.4,72.7 l 2.7,13 c 16.1,4.2 410.5,110.1 733.6,447.8 164.8,172.3 301.4,221 428.5,157 -253.9,303.8 -478,325.1 -693.5,115.8 -214.4,-208.2 -370.4,-453.9 -467.7,-716.6 l 27.5,128.3 c 26.2,117.8 54.4,235 84.2,351.9 l 1.5,-0.9 c 0,0 -0.3,1.2 -0.9,3.1 19,74.4 38.5,148.7 59,222.7 v 0 c 0,0 346.2,409.8 640,1036.8 309.7,660.6 319.4,1240.5 319.4,1240.5 -310.4,-274.9 -565.8,-622.1 -737.6,-1029.9 -171.8,-407.9 -241.9,-833.1 -221.8,-1247.4 -20.6,-73.4 -40.3,-147 -59.5,-220.8 -12.7,43.2 -112.1,367.6 -332.6,737.7 -249.7,419 -567,641.7 -567,641.7 35.8,-274.9 132.3,-546.4 293.7,-794.3 160.8,-247.1 369.1,-444.7 605,-588.7 -30.4,-116.8 -59.1,-234.1 -86,-351.8 l -31.3,-145.3 c -5.1,-24.3 -10.6,-48.4 -15.5,-72.7 l -14.4,-72.9 -14.5,-72.9 c -4.9,-24.4 -9.7,-48.6 -14.1,-73 l -26.8,-146.3 c -20.2,-113.2 -38.9,-226.7 -56.7,-340.3 -165.1,146.1 -365.6,123.3 -619.3,-98.2 135.5,43.4 262.8,-26.1 398.7,-222 47.1,-68 97.6,-129 148.8,-183.6 -12.8,-99.4 -24.8,-198.9 -36.1,-298.5 -105.4,16.1 -210.8,17.4 -313.5,4.9 -5.1,2.4 125,-170.4 284.8,-276 -11.9,-118.3 -23,-236.7 -33,-355.2 -16.6,-197.5 -30.9,-395.2 -42.9,-593.1 -16.5,-274.8 -29.1,-549.9 -36,-825.2 h -7.6 l -4,70.1 -1.5,25.6 -0.7,12.8 -1.2,12.7 -4.7,51.1 -4.7,51 -2.3,25.5 -3.2,25.4 -12.6,101.8 -1.6,12.7 -2,12.7 -3.9,25.3 -8,50.6 -7.9,50.6 -9.3,50.4 c -6.4,33.6 -12.2,67.3 -18.9,100.8 l -21.3,100.3 c -58.8,266.9 -135.7,529.8 -225.6,787.9 -45.4,128.9 -93.5,256.9 -144.9,383.5 -51.4,126.6 -105.5,252.2 -162.3,376.5 -75.4,164.6 -154.9,327.5 -240,487.4 229.7,161.6 427.8,375.8 574.4,637.1 147,262 226.6,543.6 244.5,824.6 -230.5,-161.8 -429.2,-376.6 -576.2,-638.5 -146.2,-260.7 -225.8,-540.6 -244.4,-820.1 -42.7,80.4 -86.8,160 -132.7,238.6 34.4,-59.1 67.2,-119 99.5,-179.2 11.1,-20.8 22.1,-41.7 33,-62.6 l -0.1,-1.4 v 0.1 -0.1 0.1 l 0.6,0.4 c 20.6,-39.3 40.9,-78.8 60.9,-118.4 61.7,-121.9 120.8,-245.1 177.3,-369.5 42.9,-94.4 84.2,-189.6 124.1,-285.4 -103.7,42.3 -211.1,75.1 -319.7,102.6 -109.5,27.9 -220.7,49.3 -332.7,64.9 -56.1,7.3 -112.4,13 -168.7,17.2 l -42.4,2.6 -21.1,1.2 -21.2,0.8 c -14.1,0.5 -28.3,1.2 -42.4,1.5 l -42.4,0.6 c -14.1,0.3 -28.2,0.1 -42.4,-0.1 -14.1,-0.2 -28.2,-0.1 -42.4,-0.6 -28.2,-1.2 -56.5,-1.7 -84.7,-3.8 -56.4,-3.3 -112.6,-9.9 -168.6,-17.2 -264.9,95.4 -554.9,134.5 -853.9,103.9 -298.8,-30.6 -574.9,-127.5 -815,-274.7 -5.7,0.1 100.6,-58.8 253.1,-117.7 172.5,-66.7 404.3,-133.3 600,-114.5 460.7,44.4 815.8,403 815.8,403 56.2,6.4 112.4,12.2 168.8,14.6 28.2,1.9 56.4,2.4 84.6,3.4 14.1,0.3 28.2,0.2 42.3,0.3 14.2,0.1 28.3,0.3 42.4,-0.1 l 42.3,-0.8 c 14.1,-0.4 28.2,-1.2 42.3,-1.7 l 21.2,-0.9 21.1,-1.4 42.2,-2.8 c 56.3,-4.5 112.4,-10.5 168.4,-18 111.9,-15 223,-35.8 332.6,-63.1 54.8,-13.6 109.3,-28.5 163.2,-45.3 53,-16.2 105.7,-33.6 157.3,-53.9 12.6,-30.4 25.1,-60.7 37.4,-91.2 51.1,-126.7 98.8,-254.7 144,-383.6 90.3,-257.8 167.8,-520.3 227.1,-787 l 21.5,-100.2 c 6.8,-33.4 12.7,-67.1 19.1,-100.6 l 9.4,-50.4 8,-50.6 8.1,-50.5 4,-25.3 2,-12.7 1.7,-12.7 13.2,-101.6 3.3,-25.4 2.6,-25.5 5,-50.9 5,-51 1.2,-12.8 0.8,-12.8 1.7,-25.5 4.4,-70.1 h -1040.6 v -355.2 -15.8 -1714.3 h 2085.3 v 2085.3 h -1031.4 l 19.9,56.5 15.6,44.4 16.9,43.8 33.9,87.7 36.5,86.6 c 6.1,14.5 11.9,29 18.3,43.3 l 19.3,42.9 c 13,28.5 25.5,57.2 38.9,85.5 27.4,56.4 53.9,113.2 83.2,168.6 l 21.5,41.8 10.8,20.9 11.2,20.6 45,82.6 c 7.4,13.8 15.3,27.3 23.1,40.9 l 23.4,40.7 23.4,40.8 c 7.9,13.5 16.1,26.9 24.2,40.3 l 48.6,80.4 50.2,79.5 c 16.5,26.6 34.1,52.6 51.2,78.8 17.2,26.2 34.4,52.4 52.3,78.1 67.5,100.6 138.4,198.8 211.2,295.6 55,6.4 110.4,9.6 165.7,11.6 56.4,2.2 112.9,2.5 169.4,1.3 58.8,-1.1 117.6,-4.2 176.3,-9 32.3,-29.2 62.5,-60.7 91.4,-93.3 21.7,-24.6 42.8,-49.8 62.9,-75.7 -117.7,-75.6 -220.9,-177.9 -299.6,-304.7 -79.2,-127.6 -125.3,-266.4 -140.5,-406.4 118.7,75.7 222.8,178.5 302,306.1 78.5,126.5 124.4,264 140,402.6 6.9,-9 13.7,-18.1 20.4,-27.3 6.9,-8.9 13.3,-18.2 19.8,-27.5 6.4,-9.3 13.2,-18.3 19.3,-27.9 l 18.4,-28.4 c 3.2,-4.7 6.2,-9.5 9,-14.3 l 8.8,-14.5 c 23.9,-38.5 44.6,-78.7 65.1,-119.1 l -14.2,30.9 c -4.8,10.2 -9.4,20.6 -14.8,30.6 l -15.8,30.1 c -5.1,10.1 -11.2,19.6 -16.8,29.5 -22.5,39.4 -48,77 -74.6,113.7 -26.9,36.5 -55.8,71.6 -86.4,105 -15.3,16.8 -31.2,33 -47.3,48.8 -15.2,14.4 -30.6,28.6 -46.8,41.8 53.8,-4.3 107.6,-10.1 161.1,-17.2 56,-7.6 111.7,-16.5 167.2,-27.2 l 41.5,-8.5 20.7,-4.3 20.7,-4.8 c 13.7,-3.2 27.5,-6.3 41.2,-9.6 l 41,-10.6 c 7.4,-1.8 14.8,-3.8 22.2,-5.9 104.6,-92.7 231.1,-164.1 374.5,-205.4 144.3,-41.5 290.5,-48 429.3,-24.5 -105.1,93.6 -232.4,165.8 -376.8,207.3 -142.6,41 -287,47.8 -424.3,25.4"
         style="fill:#f0f2f5;fill-opacity:1;fill-rule:nonzero;stroke:none"
         id="path20" />
      <path
         d="m 13529.9,9120.5 c 44.6,-412.3 180.1,-821.5 413.3,-1197.5 233.3,-376.1 539.6,-679.4 889.1,-902.5 0,0 -133.9,519.3 -475.4,1121.8 -359.7,634.7 -827,978.2 -827,978.2"
         style="fill:#f0f2f5;fill-opacity:1;fill-rule:nonzero;stroke:none"
         id="path22" />
      <path
         d="m 15051.6,6603.7 c -202,196.1 -450.2,351.2 -735.2,446.5 -284.9,95.3 -576.4,120.8 -855.8,85.7 202.1,-196.1 450.3,-351 735.2,-446.3 284.9,-95.4 576.5,-120.9 855.8,-85.9"
         style="fill:#f0f2f5;fill-opacity:1;fill-rule:nonzero;stroke:none"
         id="path24" />
      <path
         d="m 14845.5,5640.9 c -41.2,143.5 -112.7,270 -205.4,374.7 26.4,19.5 53.6,38 81.2,55.8 38.1,24.4 77.1,47.3 117.8,67.2 -20.9,-8.8 -41,-19.2 -61.1,-29.7 -19.9,-10.9 -39.6,-22.2 -58.8,-34.1 -38.6,-23.8 -75.9,-49.7 -111.8,-77.5 -35.6,-28.1 -70.3,-57.3 -102.7,-89.1 -8,-8 -16.5,-15.6 -24.2,-23.9 l -23.4,-24.6 c -7.9,-8.2 -15.2,-16.9 -22.6,-25.5 l -22.1,-25.8 c 30.8,33.3 61.7,66.4 95.1,96.9 l 12.4,11.5 c 4.1,3.9 8.2,7.7 12.6,11.4 l 25.5,22.3 c 8.4,7.5 17.4,14.4 26.1,21.6 8.8,7.1 17.5,14.3 26.6,21 8.9,7.1 17.9,14 27,20.8 -22.7,-137.7 -16,-282.5 25.1,-425.5 41.5,-144.4 113.7,-271.7 207.3,-376.8 23.5,138.8 17,285 -24.6,429.3"
         style="fill:#f0f2f5;fill-opacity:1;fill-rule:nonzero;stroke:none"
         id="path26" />
      <path
         d="m 13709.4,4702.1 c -52.9,132.2 7.5,264.1 193.3,413.4 372,298.9 509.7,692.9 509.7,692.9 -271.6,-74 -531.4,-208.7 -758.6,-405.4 -227.1,-196.6 -225.2,-421.7 55.6,-700.9"
         style="fill:#f0f2f5;fill-opacity:1;fill-rule:nonzero;stroke:none"
         id="path28" />
      <path
         d="m 1681.89,8084.8 c 0,0 543.19,-203.3 1062.09,-716.2 492.49,-486.8 762.73,-950.1 762.73,-950.1 -397.09,119.6 -774.35,328 -1101.2,626.5 -326.74,298.3 -568.48,655.1 -723.62,1039.8"
         style="fill:#f0f2f5;fill-opacity:1;fill-rule:nonzero;stroke:none"
         id="path30" />
      <path
         d="m 3008.7,6306.7 c 300.17,-14.2 581.18,-95.8 829,-229.6 -259.32,-109.7 -546.77,-164.4 -846.94,-150.3 -300.06,14.2 -581.07,95.8 -828.89,229.4 259.31,109.8 546.77,164.7 846.83,150.5"
         style="fill:#f0f2f5;fill-opacity:1;fill-rule:nonzero;stroke:none"
         id="path32" />
      <path
         d="m 4099,7855.4 c 59.28,-275.3 59.29,-567.9 -10.84,-860 -70.16,-292.2 -203.04,-552.9 -380.86,-771.3 -59.17,275.3 -59.07,567.9 11.09,860.1 70.13,292.1 202.9,552.8 380.61,771.2"
         style="fill:#f0f2f5;fill-opacity:1;fill-rule:nonzero;stroke:none"
         id="path34" />
      <path
         d="m 3057.13,3882 c -346.11,192.2 -409.25,408.4 -244.22,659.4 165.09,251.1 378.42,451.3 619.65,596.5 0,0 -25.34,-416.6 -301.9,-805.4 C 2992.5,4138.2 2970.3,3994.8 3057.13,3882"
         style="fill:#f0f2f5;fill-opacity:1;fill-rule:nonzero;stroke:none"
         id="path36" />
      <path
         d="m 3231.01,5483 c 7.96,2.2 15.94,4.5 23.96,6.5 l 41.03,10.8 c 13.72,3.4 27.51,6.5 41.26,9.8 l 20.64,4.9 20.74,4.5 41.52,8.7 c 55.5,11 111.31,20.3 167.35,28.1 112.22,14.4 225.2,22.9 338.31,24.5 111.9,1.7 224.1,-2.2 335.14,-16.3 -2.52,3.3 -4.99,6.7 -7.52,10 -75.56,100 -153.6,198.1 -234.11,294.2 -80.49,96.1 -163.46,190.1 -248.76,281.9 -42.46,46.1 -85.77,91.4 -129.6,136.2 -43.93,44.7 -88.37,89 -134.25,131.7 46.17,-42.4 90.93,-86.3 135.16,-130.8 44.15,-44.5 87.79,-89.5 130.57,-135.3 85.61,-91.6 168.79,-185.5 249.56,-281.5 80.77,-95.9 159.09,-193.9 234.93,-293.7 21.08,-27.8 41.95,-55.8 62.69,-83.8 4.57,37.6 10.92,75.2 19.79,112.1 9.08,37.9 19.7,75.5 32,112.5 12.53,37 25.98,73.6 41.07,109.5 15.12,35.9 31.29,71.5 49.57,105.9 -8.16,-17.7 -16.14,-35.5 -23.64,-53.4 -7.7,-17.9 -15.04,-35.9 -22.2,-54 -14.25,-36.2 -27.73,-72.7 -39.81,-109.6 -12.66,-36.8 -23.2,-74.2 -33.06,-111.8 l -7.03,-28.3 c -2.26,-9.5 -4.07,-19.1 -6.15,-28.5 -4.36,-18.1 -6.93,-36.4 -10.43,-54.6 53.75,-72.8 106.28,-146.4 156.86,-221.4 17.84,-25.8 34.91,-52.1 52.08,-78.3 17.06,-26.3 34.65,-52.3 51.09,-79 l 50.02,-79.7 48.48,-80.6 c 8.01,-13.4 16.25,-26.8 24.09,-40.4 l 23.32,-40.8 23.34,-40.8 c 7.75,-13.7 15.68,-27.2 23.01,-41 l 44.82,-82.7 11.18,-20.7 10.72,-21 21.41,-41.8 c 29.18,-55.5 55.58,-112.4 82.88,-168.9 13.34,-28.3 25.78,-57.1 38.72,-85.7 l 19.24,-42.9 c 6.34,-14.3 12.14,-28.9 18.18,-43.4 l 35.86,-86.9 33.37,-87.9 16.63,-44 15.3,-44.5 19.47,-56.7 h 3.75 c -2.29,77.1 -4.9,154.2 -7.97,231.3 -7.72,198 -17.7,395.9 -30.01,593.7 -12.29,197.8 -26.89,395.5 -43.73,593 -10.12,117.5 -21.29,235 -33.21,352.5 -37.7,-24.5 -76.98,-45.2 -116.47,-58.9 -261.23,-90.2 -543.1,16.5 -543.1,16.5 120.21,117.6 268.07,210.7 438.02,268.3 63.73,21.6 128.03,37.3 192.33,47.5 l -12.86,113.3 -18.07,147.6 c -1.34,11.3 -2.84,22.5 -4.26,33.8 -243.2,-257.5 -502.17,-369.3 -502.17,-369.3 54.69,276.2 170.67,544.8 350.81,785.3 25.79,34.5 52.54,64.1 80.25,89.1 l -7.7,49.7 -11.54,73.4 -12.35,73.3 -12.35,73.3 c -4.12,24.4 -8.1,48.9 -12.69,73.2 l -26.64,146.3 c -4.3,24.4 -9.13,48.7 -13.95,73 l -14.37,72.9 -14.37,72.9 c -4.8,24.3 -10.23,48.4 -15.32,72.7 l -2.78,13 c -16.03,4.2 -410.42,110.1 -733.54,447.8 -164.8,172.3 -301.42,221 -428.54,157 253.88,303.8 478.02,325.1 693.5,115.8 214.39,-208.2 370.38,-453.9 467.71,-716.6 l -27.45,128.3 c -26.26,117.8 -54.47,235 -84.29,351.9 l -1.49,-0.9 c 0,0 0.34,1.2 0.92,3.1 -19,74.4 -38.51,148.7 -59.03,222.7 v 0 c 0,0 -346.11,409.8 -640,1036.8 -309.65,660.6 -319.4,1240.5 -319.4,1240.5 310.5,-274.9 565.83,-622.1 737.61,-1029.9 171.84,-407.9 241.96,-833.1 221.79,-1247.4 20.69,-73.4 40.38,-147 59.57,-220.8 12.72,43.2 112.06,367.6 332.6,737.7 249.66,419 567.01,641.7 567.01,641.7 -35.83,-274.9 -132.36,-546.4 -293.7,-794.3 -160.85,-247.1 -369.12,-444.7 -604.98,-588.7 30.35,-116.8 59.1,-234.1 85.91,-351.8 l 31.35,-145.3 c 5.13,-24.3 10.6,-48.4 15.44,-72.7 l 14.48,-72.9 14.48,-72.9 c 4.86,-24.4 9.72,-48.6 14.06,-73 l 26.86,-146.3 c 20.13,-113.2 38.91,-226.7 56.71,-340.3 165.08,146.1 365.57,123.3 619.31,-98.2 -135.58,43.4 -262.89,-26.1 -398.71,-222 -47.12,-68 -97.62,-129 -148.86,-183.6 12.79,-99.4 24.83,-198.9 36.16,-298.5 105.41,16.1 210.76,17.4 313.42,4.9 5.17,2.4 -124.95,-170.4 -284.72,-276 11.85,-118.3 22.94,-236.7 32.97,-355.2 16.54,-197.5 30.85,-395.2 42.85,-593.1 16.55,-274.8 29.16,-549.9 36.08,-825.2 h 7.56 l 4,70.1 1.46,25.6 0.76,12.8 1.17,12.7 4.68,51.1 4.69,51 2.36,25.5 3.16,25.4 12.62,101.8 1.59,12.7 1.98,12.7 3.97,25.3 7.93,50.6 7.92,50.6 9.31,50.4 c 6.34,33.6 12.15,67.3 18.94,100.8 l 21.24,100.3 c 58.82,266.9 135.72,529.8 225.61,787.9 45.38,128.9 93.5,256.9 144.86,383.5 51.47,126.6 105.59,252.2 162.36,376.5 75.39,164.6 154.9,327.5 239.97,487.4 -229.67,161.6 -427.76,375.8 -574.36,637.1 -146.98,262 -226.62,543.6 -244.5,824.6 230.44,-161.8 429.17,-376.6 576.15,-638.5 146.23,-260.7 225.84,-540.6 244.38,-820.1 42.78,80.4 86.87,160 132.74,238.6 -34.43,-59.1 -67.21,-119 -99.49,-179.2 -11.15,-20.8 -22.05,-41.7 -32.99,-62.6 l 0.1,-1.4 v 0.1 -0.1 0.1 l -0.59,0.4 c -20.57,-39.3 -40.94,-78.8 -60.94,-118.4 -61.68,-121.9 -120.83,-245.1 -177.29,-369.5 -42.89,-94.4 -84.23,-189.6 -124.05,-285.4 103.7,42.3 211.09,75.1 319.62,102.6 109.58,27.9 220.77,49.3 332.76,64.9 56.07,7.3 112.34,13 168.72,17.2 l 42.32,2.6 21.16,1.2 21.19,0.8 c 14.12,0.5 28.25,1.2 42.38,1.5 l 42.39,0.6 c 14.13,0.3 28.26,0.1 42.39,-0.1 14.13,-0.2 28.27,-0.1 42.39,-0.6 28.24,-1.2 56.51,-1.7 84.7,-3.8 56.44,-3.3 112.6,-9.9 168.61,-17.2 264.94,95.4 554.97,134.5 853.91,103.9 298.83,-30.6 574.95,-127.5 815.07,-274.7 5.6,0.1 -100.65,-58.8 -253.11,-117.7 -172.57,-66.7 -404.33,-133.3 -600.08,-114.5 -460.68,44.4 -815.79,403 -815.79,403 -56.12,6.4 -112.34,12.2 -168.77,14.6 -28.16,1.9 -56.4,2.4 -84.61,3.4 -14.1,0.3 -28.23,0.2 -42.34,0.3 -14.11,0.1 -28.23,0.3 -42.34,-0.1 l -42.33,-0.8 c -14.1,-0.4 -28.2,-1.2 -42.3,-1.7 l -21.15,-0.9 -21.13,-1.4 -42.24,-2.8 c -56.27,-4.5 -112.4,-10.5 -168.34,-18 -111.87,-15 -223.02,-35.8 -332.61,-63.1 -54.8,-13.6 -109.27,-28.5 -163.2,-45.3 -53,-16.2 -105.7,-33.6 -157.3,-53.9 -12.6,-30.4 -25.09,-60.7 -37.39,-91.2 -51.08,-126.7 -98.85,-254.7 -143.97,-383.6 -90.39,-257.8 -167.8,-520.3 -227.17,-787 l -21.44,-100.2 c -6.85,-33.4 -12.73,-67.1 -19.14,-100.6 l -9.41,-50.4 -8.03,-50.6 -8.04,-50.5 -4.01,-25.3 -2.01,-12.7 -1.66,-12.7 -13.25,-101.6 -3.33,-25.4 -2.52,-25.5 -4.99,-50.9 -5,-51 -1.26,-12.8 -0.83,-12.8 -1.62,-25.5 -4.44,-70.1 H 6193.5 V 3608.9 3593.1 1878.8 H 4108.21 v 2085.3 h 1031.35 l -19.82,56.5 -15.6,44.4 -16.93,43.8 -33.96,87.7 -36.43,86.6 c -6.16,14.5 -11.91,29 -18.31,43.3 l -19.33,42.9 c -13,28.5 -25.5,57.2 -38.91,85.5 -27.41,56.4 -53.92,113.2 -83.21,168.6 l -21.5,41.8 -10.76,20.9 -11.22,20.6 -44.98,82.6 c -7.36,13.8 -15.32,27.3 -23.1,40.9 l -23.41,40.7 -23.41,40.8 c -7.86,13.5 -16.12,26.9 -24.16,40.3 l -48.64,80.4 -50.17,79.5 c -16.48,26.6 -34.12,52.6 -51.24,78.8 -17.22,26.2 -34.32,52.4 -52.22,78.1 -67.52,100.6 -138.44,198.8 -211.26,295.6 -55.01,6.4 -110.34,9.6 -165.66,11.6 -56.46,2.2 -112.97,2.5 -169.45,1.3 -58.83,-1.1 -117.6,-4.2 -176.25,-9 -32.32,-29.2 -62.55,-60.7 -91.44,-93.3 -21.71,-24.6 -42.84,-49.8 -62.93,-75.7 117.7,-75.6 220.92,-177.9 299.65,-304.7 79.23,-127.6 125.3,-266.4 140.52,-406.4 -118.75,75.7 -222.82,178.5 -302.06,306.1 -78.51,126.5 -124.37,264 -139.97,402.6 -6.93,-9 -13.72,-18.1 -20.37,-27.3 -6.91,-8.9 -13.35,-18.2 -19.83,-27.5 -6.4,-9.3 -13.21,-18.3 -19.26,-27.9 l -18.49,-28.4 c -3.16,-4.7 -6.12,-9.5 -8.98,-14.3 l -8.81,-14.5 c -23.85,-38.5 -44.58,-78.7 -65.1,-119.1 l 14.22,30.9 c 4.8,10.2 9.4,20.6 14.8,30.6 l 15.84,30.1 c 5.13,10.1 11.2,19.6 16.76,29.5 22.5,39.4 48.01,77 74.62,113.7 26.89,36.5 55.78,71.6 86.4,105 15.3,16.8 31.18,33 47.34,48.8 15.19,14.4 30.57,28.6 46.73,41.8 -53.83,-4.3 -107.55,-10.1 -161.07,-17.2 -55.96,-7.6 -111.73,-16.5 -167.2,-27.2 l -41.49,-8.5 -20.73,-4.3 -20.63,-4.8 c -13.75,-3.2 -27.54,-6.3 -41.25,-9.6 l -41.03,-10.6 c -7.41,-1.8 -14.78,-3.8 -22.12,-5.9 -104.7,-92.7 -231.15,-164.1 -374.52,-205.4 -144.35,-41.5 -290.52,-48 -429.35,-24.5 105.15,93.6 232.46,165.8 376.8,207.3 142.65,41 287.02,47.8 424.33,25.4"
         style="fill:#f0f2f5;fill-opacity:1;fill-rule:nonzero;stroke:none"
         id="path38" />
      <path
         d="M 7470.13,9120.5 C 7425.53,8708.2 7290.02,8299 7056.82,7923 c -233.29,-376.1 -539.59,-679.4 -889.13,-902.5 0,0 133.95,519.3 475.37,1121.8 359.72,634.7 827.07,978.2 827.07,978.2"
         style="fill:#f0f2f5;fill-opacity:1;fill-rule:nonzero;stroke:none"
         id="path40" />
      <path
         d="m 5948.37,6603.7 c 202.06,196.1 450.24,351.2 735.22,446.5 284.88,95.3 576.41,120.8 855.82,85.7 -202.1,-196.1 -450.31,-351 -735.19,-446.3 -284.98,-95.4 -576.47,-120.9 -855.85,-85.9"
         style="fill:#f0f2f5;fill-opacity:1;fill-rule:nonzero;stroke:none"
         id="path42" />
      <path
         d="m 6154.45,5640.9 c 41.25,143.5 112.72,270 205.43,374.7 -26.4,19.5 -53.59,38 -81.18,55.8 -38.07,24.4 -77.14,47.3 -117.82,67.2 20.87,-8.8 41.04,-19.2 61.12,-29.7 19.88,-10.9 39.56,-22.2 58.84,-34.1 38.57,-23.8 75.91,-49.7 111.72,-77.5 35.6,-28.1 70.37,-57.3 102.74,-89.1 8.04,-8 16.5,-15.6 24.19,-23.9 l 23.42,-24.6 c 7.91,-8.2 15.15,-16.9 22.56,-25.5 l 22.08,-25.8 c -30.73,33.3 -61.63,66.4 -95.04,96.9 l -12.41,11.5 c -4.08,3.9 -8.24,7.7 -12.55,11.4 l -25.52,22.3 c -8.43,7.5 -17.44,14.4 -26.13,21.6 -8.75,7.1 -17.48,14.3 -26.56,21 -8.9,7.1 -17.92,14 -27.04,20.8 22.73,-137.7 16.03,-282.5 -25.11,-425.5 -41.52,-144.4 -113.67,-271.7 -207.34,-376.8 -23.45,138.8 -16.91,285 24.6,429.3"
         style="fill:#f0f2f5;fill-opacity:1;fill-rule:nonzero;stroke:none"
         id="path44" />
      <path
         d="m 7290.63,4702.1 c 52.85,132.2 -7.54,264.1 -193.36,413.4 -371.93,298.9 -509.72,692.9 -509.72,692.9 271.65,-74 531.43,-208.7 758.63,-405.4 227.11,-196.6 225.18,-421.7 -55.55,-700.9"
         style="fill:#f0f2f5;fill-opacity:1;fill-rule:nonzero;stroke:none"
         id="path46" />
      <path
         d="m 6823.21,16204.2 h -40.62 v 1393.2 h 40.62 v -1393.2"
         style="fill:#f0f2f5;fill-opacity:1;fill-rule:nonzero;stroke:none"
         id="path48" />
      <path
         d="m 3664.25,16629.4 h -40.61 v 2576.5 h 40.61 v -2576.5"
         style="fill:#f0f2f5;fill-opacity:1;fill-rule:nonzero;stroke:none"
         id="path50" />
      <path
         d="m 1790.18,11115.1 h -40.62 v 2576.4 h 40.62 v -2576.4"
         style="fill:#f0f2f5;fill-opacity:1;fill-rule:nonzero;stroke:none"
         id="path52" />
      <path
         d="m 16767.8,18412.7 h -23.5 v 745.2 h 23.5 v -745.2"
         style="fill:#f0f2f5;fill-opacity:1;fill-rule:nonzero;stroke:none"
         id="path54" />
      <path
         d="m 15101.4,12817.3 h -23.5 v 1151.5 h 23.5 v -1151.5"
         style="fill:#f0f2f5;fill-opacity:1;fill-rule:nonzero;stroke:none"
         id="path56" />
      <path
         d="m 18765.8,14433.8 h -23.5 v 1151.4 h 23.5 v -1151.4"
         style="fill:#f0f2f5;fill-opacity:1;fill-rule:nonzero;stroke:none"
         id="path58" />
      <path
         d="m 14116.4,16852.2 h -23.5 v 1490.5 h 23.5 v -1490.5"
         style="fill:#f0f2f5;fill-opacity:1;fill-rule:nonzero;stroke:none"
         id="path60" />
      <path
         d="m 17362.5,3881.6 c -75.6,-1730.1 -1550.7,-850.3 -1550.7,-850.3 -117.1,20.7 -230.2,48.7 -338.1,81.8 -720.1,220.9 -1215.8,668.1 -1215.8,668.1 l -11.9,-498.1 -6.4,-270.3 265.1,-1134 H 6164.2 l 73.1,933 23.7,302.5 C 5958.3,2626.8 5352.4,2757 5333.5,2761.2 l -0.5,0.1 c -59.1,-56.3 -116.2,-106.1 -171.3,-150 -847.1,-675.2 -1223.5,47.5 -1223.5,47.5 -632,512.4 -642.2,1644.3 -642.2,1644.3 -105.3,268.1 -30,505 -30,505 -249.3,467.4 124.6,783.4 124.6,783.4 102.4,658.8 548.8,1658.8 548.8,1658.8 -279.5,298.5 229.1,667.4 229.1,667.4 234.4,3189.4 1588.4,3565.8 1707.3,3519 15.6,76.2 488.8,227.3 1007.7,396.6 508,165.7 1059.8,348.9 1269,496.4 4.5,3.2 8.9,6.3 13.1,9.5 84.6,152.8 243.9,251 414.7,252.7 23.3,0.3 46.8,-1.2 70.3,-4.7 398.7,-58.6 914,-234.9 1600.3,-192 587.6,36.7 1088,168.7 1417,245.2 46.5,10.8 93.2,16 139.4,16 355.2,0 470.2,-303.4 470.2,-303.4 40.7,-17.8 81,-35.1 120.8,-51.9 1358,-572 2240.3,-576.9 2216.8,-759.3 1225.4,-61 1501.4,-1914.2 1698.1,-2979.9 422.6,-429.5 170.4,-654.5 170.4,-654.5 L 17253.9,6135 c 702.2,-1206.6 108.6,-2253.4 108.6,-2253.4"
         style="fill:#f9a21b;fill-opacity:1;fill-rule:nonzero;stroke:none"
         id="path62" />
      <path
         d="m 6237.3,2811.8 12.95,165.3 c 139.07,128.4 235.77,300.1 273.91,490.4 51.76,258.4 96.85,648.4 46.74,1119.1 -22.48,211.4 -118.76,407.4 -251.51,582.9 l 3878.41,3676.1 0.2,-614 4242.4,-3086.8 c 0,0 30,-38.9 79.8,-106.3 -31.1,-707.5 276.9,-1495.2 276.9,-1495.2 100.6,-127.1 211.9,-224.7 325.9,-299.4 -525.4,230.9 -865.1,537.3 -865.1,537.3 l -11.9,-498.1 c -2329.4,1195.4 -4072.8,4193.3 -4221.2,4453.8 -242.13,-531.3 -731.73,-1521 -1428.81,-2521.7 173.12,-358.5 655.69,-741.5 853.21,-888.3 l -980.73,708.4 0.05,0.1 C 7879.27,4218.8 7153.33,3412.6 6312.4,2860.4 c -25.5,-16.8 -50.6,-33 -75.1,-48.6"
         style="fill:#d67813;fill-opacity:1;fill-rule:nonzero;stroke:none"
         id="path64" />
      <path
         d="m 9535.19,4264.8 c 0,0 -32.61,22.5 -85.99,62.1 l 85.99,-62.1"
         style="fill:#d67813;fill-opacity:1;fill-rule:nonzero;stroke:none"
         id="path66" />
      <path
         d="m 12327.3,11840.2 c 0.1,-1159.4 -876.8,-1920.5 -2047,-1923.1 -1177.5,-2.7 -2127.8,964.5 -2127.8,2142 l 13.1,280.1 c 84.6,152.8 243.9,251 414.7,252.7 23.3,0.3 46.8,-1.2 70.3,-4.7 398.7,-58.6 914,-234.9 1600.3,-192 587.6,36.7 1088,168.7 1417,245.2 46.5,10.8 93.2,16 139.4,16 355.2,0 470.2,-303.4 470.2,-303.4 49.9,-200.8 49.8,-384 49.8,-512.8"
         style="fill:#1f4168;fill-opacity:1;fill-rule:nonzero;stroke:none"
         id="path68" />
      <path
         d="m 11633.5,12840.3 v 1712.9 H 8917.4 v -1725.7 c 0,-199.6 -140.98,-371.5 -336.76,-410.5 l -0.34,-0.1 v -269 c 0,-938.5 755.78,-1710.9 1694.3,-1711.4 936.6,-0.4 1695.9,758.7 1695.9,1695.1 v 320.8 c -1.9,0.3 -3.9,0.6 -5.8,0.9 -190.7,29.9 -331.2,194 -331.2,387"
         style="fill:#ffc89f;fill-opacity:1;fill-rule:nonzero;stroke:none"
         id="path70" />
      <path
         d="m 10272.4,12014.9 v 0 c -1041.68,0 -1886.1,844.4 -1886.1,1886 V 16205 c 0,1041.7 844.42,1886.1 1886.1,1886.1 v 0 c 1041.6,0 1886,-844.4 1886,-1886.1 v -2304.1 c 0,-1041.6 -844.4,-1886 -1886,-1886"
         style="fill:#ffc89f;fill-opacity:1;fill-rule:nonzero;stroke:none"
         id="path72" />
      <path
         d="m 10272.4,12014.9 c -162.7,-13.8 -328.47,-0.2 -489.04,37.1 -40.3,8.8 -79.7,21.2 -119.46,32.3 -39.55,11.9 -77.9,27.4 -116.97,40.9 -19.75,6.3 -38.1,16 -57.09,24.2 l -56.55,25.5 c -37.48,17.4 -73.34,38.1 -110.1,57.1 -35.99,20.4 -70.21,43.8 -105.36,65.5 -34.39,22.9 -67.35,48 -100.72,72.3 -32.44,25.6 -63.27,53.2 -94.9,79.7 -30.68,27.6 -59.52,57.2 -88.88,86.1 -114.22,118.8 -211.11,254.1 -282.24,401.1 95.42,-132.3 201.4,-254.5 319.41,-363.2 30.57,-26 60.12,-53 90.63,-78.8 31.71,-24.5 62.51,-50 94.82,-73.5 33.13,-22.3 64.84,-46.6 98.45,-68.2 34.24,-20.5 67.55,-42.6 102.46,-61.9 35.22,-18.7 69.55,-39.2 105.5,-56.5 36.33,-16.6 72.05,-34.5 108.88,-49.9 37.18,-14.5 73.71,-31 111.53,-44 l 56.95,-18.9 c 19.03,-6.2 37.63,-14 57.13,-18.6 153.73,-45.8 313.05,-73.9 475.55,-88.3"
         style="fill:#ff9a6c;fill-opacity:1;fill-rule:nonzero;stroke:none"
         id="path74" />
      <path
         d="m 11957.4,13052.9 c -25.9,-82.8 -63.9,-161.4 -109,-235.6 -11.4,-18.5 -23,-36.9 -35.2,-54.9 l -37.8,-53.2 c -13.1,-17.4 -27,-34.1 -40.5,-51.1 l -42.6,-49.6 c -58.5,-64.5 -123.5,-123.1 -193.2,-175 -69.7,-51.8 -144.4,-97 -224.4,-130.5 64.9,57.5 128.8,113.3 190.3,171.2 61.6,58 120.3,118.1 177,180.1 l 42.3,46.8 c 13.6,16 26.9,32.3 40.8,48 l 40.3,48.6 c 12.7,16.8 26.1,33.2 39.5,49.6 51.9,66.6 101.5,135.5 152.5,205.6"
         style="fill:#ff9a6c;fill-opacity:1;fill-rule:nonzero;stroke:none"
         id="path76" />
      <path
         d="m 12224.2,13971 h -98.1 c -193.8,0 -350.8,157.1 -350.8,350.9 v 626.3 c 0,193.8 157,350.9 350.8,350.9 h 98.1 c 193.8,0 350.9,-157.1 350.9,-350.9 v -626.3 c 0,-193.8 -157.1,-350.9 -350.9,-350.9"
         style="fill:#ffc89f;fill-opacity:1;fill-rule:nonzero;stroke:none"
         id="path78" />
      <path
         d="m 12164.9,15076 c 59.3,-9 116.6,-38.9 160.4,-83.3 43.9,-44.3 75,-102.4 86.6,-164.6 5.6,-30.8 6.2,-63.9 5.2,-92.6 -1.3,-29.5 -1.7,-59.1 -3.8,-88.6 -3.3,-59.2 -8.3,-118.3 -17.7,-177.4 -9.5,59.1 -14.4,118.2 -17.7,177.4 -2.1,29.5 -2.5,59.1 -3.8,88.6 -0.3,30.5 -1.2,56.8 -6.7,84.1 -4.4,27.2 -13.3,53.6 -25,78.6 -11.2,25.3 -26.4,48.7 -43.4,71 -34.8,44.1 -80.7,79.8 -134.1,106.8"
         style="fill:#ff9a6c;fill-opacity:1;fill-rule:nonzero;stroke:none"
         id="path80" />
      <path
         d="m 12197.5,14372.3 c -19.9,8.6 -35.7,22.5 -49.1,38.2 -13.2,15.9 -23.6,34.2 -30.9,53.6 -7.2,19.4 -11.2,40.1 -11.5,60.8 0,20.7 3,41.5 12.5,60.9 9.5,-19.3 15.9,-37.2 22.7,-54.7 l 18.9,-51.3 18.9,-51.3 c 6.2,-17.6 13.1,-35.4 18.5,-56.2"
         style="fill:#ff9a6c;fill-opacity:1;fill-rule:nonzero;stroke:none"
         id="path82" />
      <path
         d="m 8317.29,13971 h 98.11 c 193.77,0 350.86,157.1 350.86,350.9 v 626.3 c 0,193.8 -157.09,350.9 -350.86,350.9 h -98.11 c -193.78,0 -350.87,-157.1 -350.87,-350.9 v -626.3 c 0,-193.8 157.09,-350.9 350.87,-350.9"
         style="fill:#ffc89f;fill-opacity:1;fill-rule:nonzero;stroke:none"
         id="path84" />
      <path
         d="m 8355.45,15068.6 c -49.81,-29.8 -91.6,-67.3 -123.28,-111.5 -31.12,-44.4 -51.93,-95 -59.96,-147.7 -4.53,-26.1 -4.07,-52.9 -4.8,-82.2 -1.27,-28.7 -1.67,-57.3 -3.78,-85.9 -3.32,-57.3 -8.25,-114.5 -17.69,-171.8 -9.44,57.3 -14.38,114.5 -17.7,171.8 -2.11,28.6 -2.51,57.2 -3.78,85.9 -0.34,14.5 -0.73,28.1 -0.38,43.4 -0.01,15.3 1.49,30.5 3.33,45.7 10.01,60.4 36.53,118.1 77.3,163 40.46,44.8 93.9,77.1 150.74,89.3"
         style="fill:#ff9a6c;fill-opacity:1;fill-rule:nonzero;stroke:none"
         id="path86" />
      <path
         d="m 8344.06,14372.3 c 5.41,20.8 12.23,38.6 18.44,56.2 l 18.95,51.3 18.91,51.3 c 6.75,17.5 13.15,35.4 22.68,54.7 9.48,-19.4 12.49,-40.2 12.43,-60.9 -0.3,-20.7 -4.27,-41.4 -11.51,-60.8 -7.2,-19.4 -17.6,-37.7 -30.84,-53.6 -13.44,-15.7 -29.24,-29.6 -49.06,-38.2"
         style="fill:#ff9a6c;fill-opacity:1;fill-rule:nonzero;stroke:none"
         id="path88" />
      <path
         d="m 11449.3,14966.2 c 0,-93.6 -75.9,-169.5 -169.5,-169.5 -93.6,0 -169.5,75.9 -169.5,169.5 0,93.7 75.9,169.6 169.5,169.6 93.6,0 169.5,-75.9 169.5,-169.6"
         style="fill:#1b1a2e;fill-opacity:1;fill-rule:nonzero;stroke:none"
         id="path90" />
      <path
         d="m 11629.6,15093 c -25.4,19 -52,35.8 -80,49.9 -13.9,7.2 -28,13.8 -42.2,20.2 -14.7,5.4 -28.9,11.9 -43.7,16.4 -59,19.1 -120.7,30.8 -182.5,28.6 -15.5,1.2 -30.8,-2.1 -46.2,-2.9 l -23.1,-2.2 c -7.7,-0.9 -15.2,-3.1 -22.8,-4.5 l -45.5,-9.4 c -14.7,-5.1 -29.4,-9.8 -44.3,-14.5 l -22.3,-7.1 -21.3,-9.6 -42.8,-19.3 c -28.2,-13.9 -54.6,-30.9 -82.9,-45.6 25.3,18.9 50.8,38 77.5,55.3 l 42.2,22.6 21.1,11.2 22.3,8.8 c 14.9,5.9 29.9,11.7 45,17.2 15.5,4.2 31.2,7.6 46.9,11.5 7.8,1.7 15.6,4 23.6,5.1 l 24,2.5 c 16.1,1.1 32,4.6 48.2,3.5 64.6,1.8 129.3,-11.2 188.8,-34.9 59.6,-23.7 115.1,-57.9 160,-102.8"
         style="fill:#1b1a2e;fill-opacity:1;fill-rule:nonzero;stroke:none"
         id="path92" />
      <path
         d="m 9670.03,14966.2 c 0,-93.6 -75.9,-169.5 -169.54,-169.5 -93.64,0 -169.54,75.9 -169.54,169.5 0,93.7 75.9,169.6 169.54,169.6 93.64,0 169.54,-75.9 169.54,-169.6"
         style="fill:#1b1a2e;fill-opacity:1;fill-rule:nonzero;stroke:none"
         id="path94" />
      <path
         d="m 9850.28,15093 c -25.36,19 -51.96,35.8 -79.97,49.9 -13.87,7.2 -28.06,13.8 -42.23,20.2 -14.65,5.4 -28.84,11.9 -43.73,16.4 -59,19.1 -120.66,30.8 -182.5,28.6 -15.47,1.2 -30.79,-2.1 -46.19,-2.9 l -23.09,-2.2 c -7.67,-0.9 -15.13,-3.1 -22.75,-4.5 l -45.5,-9.4 c -14.69,-5.1 -29.47,-9.8 -44.34,-14.5 l -22.3,-7.1 -21.32,-9.6 -42.82,-19.3 c -28.13,-13.9 -54.59,-30.9 -82.85,-45.6 25.3,18.9 50.81,38 77.5,55.3 l 42.16,22.6 21.16,11.2 22.32,8.8 c 14.9,5.9 29.88,11.7 44.97,17.2 15.5,4.2 31.22,7.6 46.86,11.5 7.85,1.7 15.63,4 23.6,5.1 l 24.06,2.5 c 16.06,1.1 32.02,4.6 48.2,3.5 64.61,1.8 129.26,-11.2 188.81,-34.9 59.55,-23.7 115.08,-57.9 159.95,-102.8"
         style="fill:#1b1a2e;fill-opacity:1;fill-rule:nonzero;stroke:none"
         id="path96" />
      <path
         d="m 10592.2,14540.6 c 14.8,-72 27.2,-144.3 39.2,-216.6 12.3,-72.3 22.8,-144.9 33.3,-217.5 5,-35.7 11.2,-73.9 7.4,-111.7 -3.2,-37.6 -12.2,-75.1 -29.3,-109 -16.9,-33.7 -41.4,-65 -74.9,-84 -32.6,-17.1 -64.7,-34.6 -97.7,-50.9 30.3,20.7 61.5,40.2 92,60.4 29.6,19.3 50.9,49.5 64.8,81.8 13.7,32.7 22,67.7 23.7,103.2 3,35.6 -3,70.4 -8.4,107.1 -9.9,72.6 -19.9,145.3 -28,218.2 -8.5,72.8 -16.5,145.7 -22.1,219"
         style="fill:#1b1a2e;fill-opacity:1;fill-rule:nonzero;stroke:none"
         id="path98" />
      <path
         d="m 10083.2,13423 c 40.4,25.5 85.3,40.6 131,51 46,9.8 93.5,14.6 141.4,10.9 47.6,-3.8 95.9,-13.9 140,-35.4 43.7,-21.9 82.9,-54.9 105.5,-96.8 -42.8,21.7 -82.5,36.4 -123.8,46.6 -41.4,9.9 -83.7,14.3 -126.4,17.8 -42.9,3.5 -86.5,3.6 -130.9,4 -44.5,0.3 -89.5,0.2 -136.8,1.9"
         style="fill:#e43f5a;fill-opacity:1;fill-rule:nonzero;stroke:none"
         id="path100" />
      <path
         d="m 11627.9,15556.9 c -21.9,-33.8 -52.2,-57.4 -84.4,-76.5 -16.2,-9.2 -33.2,-17.1 -50.8,-23.8 -8.8,-3.2 -17.7,-5.8 -26.7,-8.3 -9.1,-2.5 -18.2,-5.7 -27.5,-6.9 -73.8,-14.3 -154.2,-6.4 -225.1,24.6 -18.3,6.2 -34.4,17.1 -51.3,26.3 l -24.5,15 c -7.8,5.5 -15,11.7 -22.3,17.8 -14.5,12.3 -28.7,25 -41.8,38.3 -12,14.5 -23.5,29.3 -34.1,44.5 -5.5,7.5 -10.5,15.3 -15.4,23.1 -4.1,8.3 -8.4,16.4 -12,25 -7.8,16.8 -14.5,33.9 -20.4,51.1 -5.6,17.4 -8.2,36.3 -10.6,54.8 -2.3,18.5 -3,37.6 -1.7,57 39.4,-12.2 69.1,-27.8 98.6,-41.6 15,-6.4 29.4,-12.8 42.7,-19.6 6.9,-3.1 13.1,-6.8 19.4,-10.3 6.8,-2.8 13.8,-5.3 20.1,-8.3 13.1,-5.8 25.2,-11.9 36.9,-18.3 12.4,-5.2 24.6,-10 36,-15.8 5.9,-2.5 11.1,-6.1 17,-8.4 6,-2.2 11.7,-4.6 17.5,-6.9 l 16.8,-7.8 c 5.4,-3.1 11.1,-5.4 17,-7.2 44.8,-20.2 90.8,-36.6 142.9,-55.7 52.9,-19.5 109.6,-37.1 183.7,-62.1"
         style="fill:#1b1a2e;fill-opacity:1;fill-rule:nonzero;stroke:none"
         id="path102" />
      <path
         d="m 9801.03,15818.9 c 7.71,-39.4 2.3,-77.5 -7.52,-113.6 -5.33,-17.9 -12.1,-35.4 -20.05,-52.4 -4.08,-8.4 -8.75,-16.5 -13.46,-24.6 -4.83,-8 -9.12,-16.7 -15,-23.9 -43.12,-61.7 -106.46,-111.8 -178.95,-138.8 -17.55,-8.2 -36.68,-11.6 -55.19,-16.7 l -28.09,-6.2 c -9.42,-1.5 -18.94,-2 -28.44,-2.7 -18.97,-1.2 -37.94,-2 -56.67,-1.5 -18.69,2.1 -37.22,4.8 -55.44,8.3 -9.1,1.6 -18.15,3.8 -27.05,6 -8.78,3.1 -17.49,5.9 -26.07,9.6 -17.19,6.7 -33.93,14.4 -50.13,22.5 -16.11,8.7 -31.09,20.5 -45.68,32.2 -14.55,11.7 -28.29,24.9 -40.91,39.8 36.84,18.5 69.11,28 99.84,38.5 15.29,5.9 30.04,11.3 44.34,15.6 7.17,2.5 14.2,4.2 21.17,6.1 6.86,2.7 13.6,5.7 20.27,8 13.33,4.9 26.35,8.9 39.2,12.4 12.51,4.9 24.62,9.9 36.82,13.7 6,2.2 12.29,3.3 18.12,5.7 5.77,2.6 11.6,4.8 17.37,7.2 l 17.51,6.1 c 6.03,1.5 11.72,3.8 17.22,6.6 46.27,16.6 90.78,36.8 141.54,59.3 51.52,22.6 104.58,49.3 175.25,82.8"
         style="fill:#1b1a2e;fill-opacity:1;fill-rule:nonzero;stroke:none"
         id="path104" />
      <path
         d="m 11597.2,14641.2 c 0,-26.4 -56,-47.8 -125.1,-47.8 -69.1,0 -125.1,21.4 -125.1,47.8 0,26.3 56,47.7 125.1,47.7 69.1,0 125.1,-21.4 125.1,-47.7"
         style="fill:#ff9a6c;fill-opacity:1;fill-rule:nonzero;stroke:none"
         id="path106" />
      <path
         d="m 9400.89,14641.2 c 0,-26.4 -56.01,-47.8 -125.1,-47.8 -69.09,0 -125.1,21.4 -125.1,47.8 0,26.3 56.01,47.7 125.1,47.7 69.09,0 125.1,-21.4 125.1,-47.7"
         style="fill:#ff9a6c;fill-opacity:1;fill-rule:nonzero;stroke:none"
         id="path108" />
      <path
         d="m 8620.71,16233.8 75.57,38.7 -75.57,-459.2 -226.72,-230.4 c 0,0 37.79,-896.6 25.19,-896.6 -12.6,0 -314.89,857.8 -314.89,1560.4 0,0 -225.93,-204.5 67.97,-532.1 0,0 -409.78,60.5 -216.6,413.2 69.64,127.2 132.78,257.6 181.7,394.1 1.76,4.9 3.56,9.9 5.42,14.9 l -109.08,-147.6 c 0,0 -79.33,147.6 89.25,402.1 0,0 -371.88,-279.9 -376.83,-677 0,0 -143.79,463.2 312.37,783.9 0,0 -51.71,274.5 231.9,698.5 0,0 -208.97,-143 -273.66,-357.5 0,0 -133.58,510.8 679.55,694.7 0,0 141.43,403.5 678.8,204.3 0,0 -182.07,625.4 571.88,719.9 0,0 -564.03,-159.5 -460.43,-661.7 0,0 241.73,827.2 1035.97,519.9 0,0 247.5,47.3 374.1,-236.3 0,0 425.9,-218.6 684.9,0 0,0 -97.9,-271.8 -391.4,-135.9 0,0 172.7,-118.2 391.4,-94.6 218.7,23.7 310.8,-206.8 310.8,-206.8 0,0 539.2,52 522,-592.8 0,0 731.3,-419.5 516.2,-998.1 0,0 30.2,503.5 -567.8,781.7 0,0 672.9,-723.2 371.7,-1080.8 0,0 61.1,227.1 -178.9,464 l -136.5,-439.8 c 0,0 240,-372.2 122.4,-531.6 0,0 -47.1,372.1 -141.3,502.6 0,0 64.4,-767.3 -265.1,-1187.4 l 16,594.7 -207.3,321.7 -53.1,654.9 c 0,0 -462.4,294.6 -446.5,294.6 16,0 132.9,43.7 132.9,43.7 0,0 -212.6,420.1 -818.4,212.8 l 15.9,70.9 -233.8,-103.7 47.8,141.9 -196.6,-141.9 -196.6,65.5 43.1,-76.4 -388.59,103.7 47.84,-60 c 0,0 -722.77,-32.8 -1190.44,-523.8 l 122.23,38.2 -208.73,-363.5"
         style="fill:#1b1b2f;fill-opacity:1;fill-rule:nonzero;stroke:none"
         id="path110" />
      <path
         d="m 9359.7,18368.5 c -1.98,-56.2 5.46,-111.6 17.74,-165.5 4.76,-27.2 13.81,-53.6 20.86,-80.2 8.64,-26.2 17.92,-52.2 27.11,-78.1 39.95,-102.8 94.63,-199.5 156.73,-290.6 60.08,-92.9 133.18,-176.6 205.78,-260.8 l 115.49,-120.9 c 40.31,-38.6 80.78,-77.2 120.19,-117.5 -45.75,32.5 -90.36,66.8 -135.15,101 -42.56,36.8 -84.68,74.4 -126.01,112.9 -19.67,20.2 -39.24,40.6 -58.53,61.3 -19.26,20.7 -39.37,40.6 -56.73,63.1 l -53.24,66.2 c -18.09,21.9 -32.86,46.3 -49.39,69.3 -63.06,94.2 -117.95,195.3 -152.36,304.2 -7.69,27.5 -16.1,54.7 -22.49,82.4 -4.87,28.1 -11.85,55.6 -14.11,84.1 -6.44,56.2 -7.86,113.9 4.11,169.1"
         style="fill:#1f4068;fill-opacity:1;fill-rule:nonzero;stroke:none"
         id="path112" />
      <path
         d="m 9733.78,18436 c -17.2,-45.8 -27,-93.2 -32.55,-140.9 -6.73,-47.5 -6.39,-95.5 -5.13,-143.1 4.58,-95.3 24.19,-189.3 53.19,-280.1 7.63,-22.6 14.26,-45.6 22.58,-68 l 27.6,-66.4 c 4.61,-11 8.59,-22.4 13.72,-33.2 l 16.05,-32.3 c 10.81,-21.4 21.29,-43.1 31.63,-64.9 l 71.03,-126.4 c 26.06,-40.8 52.3,-81.7 77.1,-124.1 -32.73,36.2 -64.02,73.9 -95.51,111.6 -28.28,39.9 -56.98,79.9 -83.39,121.4 -49.52,85 -95.48,173.3 -124.03,268.6 -29.28,94.6 -47.84,193.7 -45.23,293.4 1.75,49.7 6.45,99.3 18.6,147.5 11.84,47.9 28.06,95.4 54.34,136.9"
         style="fill:#1f4068;fill-opacity:1;fill-rule:nonzero;stroke:none"
         id="path114" />
      <path
         d="m 10546.4,17305.8 c 52.5,63.5 101,129 146.3,196.2 44.8,67.6 86.1,137.1 121.3,209.4 l 25.3,54.7 c 8.4,18.3 14.3,37.5 22,56.1 3.6,9.3 7.6,18.6 11,28 l 8.7,28.8 8.8,28.8 c 3.2,9.5 6.5,19.1 8.3,28.9 20.7,78 28.3,158.2 31.7,240.8 15.5,-80.7 17.9,-165.7 2.9,-248.1 -15.1,-82.3 -41.5,-162.6 -78,-237.7 -37.3,-74.7 -81.7,-145.6 -133.5,-210.5 -51.7,-64.7 -109.1,-125.3 -174.8,-175.4"
         style="fill:#1f4068;fill-opacity:1;fill-rule:nonzero;stroke:none"
         id="path116" />
      <path
         d="m 10347.4,17322.4 c -17.5,40 -28,82.3 -35.4,124.8 -7.3,42.7 -11.1,85.9 -11.1,129.3 -0.5,43.3 4.2,86.8 12.1,129.5 8,42.7 21.6,84.7 41.4,123.4 -1.5,-43.7 -5,-85.4 -6.2,-127.5 -1.2,-41.9 -2.2,-83.6 -2,-125.4 l 0.9,-126 c 0.6,-42.2 1.3,-84.6 0.3,-128.1"
         style="fill:#1f4068;fill-opacity:1;fill-rule:nonzero;stroke:none"
         id="path118" />
      <path
         d="m 10721.3,17409.8 c 77.3,92 164.8,175.1 256.9,252.6 92.2,77.4 190.6,147.9 294.7,209.4 104.5,60.6 214.9,113.4 332.1,146.1 116.2,34 241,46.7 359.3,24 -120.1,3.7 -237.4,-18.6 -348.7,-57.7 -55.6,-19.6 -110.4,-41.6 -163.3,-67.9 -53.3,-25.5 -105.7,-53 -156.4,-83.6 -102.4,-59.5 -200.2,-127.1 -295.8,-198 -95.3,-71.4 -188.2,-146.3 -278.8,-224.9"
         style="fill:#1f4068;fill-opacity:1;fill-rule:nonzero;stroke:none"
         id="path120" />
      <path
         d="m 11340.1,17587.7 c 94.2,48.9 201.6,70.7 307.7,78.4 106.7,7.8 214.2,-0.2 319.3,-19.7 104.9,-20.5 207.8,-52.8 304.2,-99 96.3,-45.9 186.5,-105.2 262.8,-178.7 -88.1,58.7 -180.6,107.5 -277.1,146.3 -96.5,38.4 -196.4,67.7 -298.3,86.8 -101.8,19.8 -205.7,29.5 -309.5,29.1 -103.9,-1.2 -208,-12 -309.1,-43.2"
         style="fill:#1f4068;fill-opacity:1;fill-rule:nonzero;stroke:none"
         id="path122" />
      <path
         d="m 12691.8,16429.8 c -42.7,57 -87.9,110.6 -135.1,162.1 -47.4,51.3 -96.3,101 -148.9,146.6 -51.8,46.4 -106,90.2 -162.9,130.6 -56.2,41.8 -116.2,77.7 -176.3,116.5 67.8,-21.6 134.3,-49.6 195.6,-86.8 31.6,-17 60.4,-38.5 90.2,-58.6 14.8,-10.2 28.2,-22.2 42.4,-33.2 14.1,-11.1 28,-22.4 41.2,-34.7 53.6,-47.7 102.8,-100.5 145.8,-157.8 43.2,-57.1 81.6,-118.3 108,-184.7"
         style="fill:#1f4068;fill-opacity:1;fill-rule:nonzero;stroke:none"
         id="path124" />
      <path
         d="m 8445.09,17856 c 51.17,34.9 109.58,58.8 169.56,75.3 15.09,3.9 30.19,7.9 45.49,11 l 46.21,8.1 c 31.07,3.5 62.3,6.4 93.67,6.4 15.68,0.3 31.35,0.1 46.99,-1.5 15.62,-1.3 31.32,-1.7 46.84,-3.9 30.86,-5.8 62.04,-9.3 91.86,-19.3 60.62,-15.3 117.38,-43.2 169.25,-76.1 -59.93,15.8 -117.41,33.2 -176.89,41.6 -58.87,10.1 -118.36,14.7 -177.76,13.9 -59.43,0.4 -118.94,-5.2 -178.13,-14.6 -59.25,-9.6 -118.07,-23.1 -177.09,-40.9"
         style="fill:#1f4068;fill-opacity:1;fill-rule:nonzero;stroke:none"
         id="path126" />
      <path
         d="m 9825.85,17178.9 c -90.48,42.4 -182.2,80.3 -275.38,112.7 -46.72,15.8 -93.56,30.9 -141.18,42.6 -47.46,12.2 -95.27,22.7 -143.53,29.1 -48.15,6.9 -96.65,10.1 -144.86,8.8 -48.32,-0.4 -96.07,-8.1 -142.29,-20.8 -45.97,-13.3 -90.68,-32.5 -130.93,-59.8 -40.29,-27.3 -75.65,-61.8 -108.47,-99.7 24.5,43.6 56.44,83.6 95,117.4 39.14,33.1 85,58.5 133.59,75.8 97.76,35.8 203.76,36.2 304.26,23.2 100.78,-15.2 198.43,-44.2 291.03,-83.7 92.57,-39.3 181.62,-86.9 262.76,-145.6"
         style="fill:#1f4068;fill-opacity:1;fill-rule:nonzero;stroke:none"
         id="path128" />
      <path
         d="m 9897.65,17082.9 c -80.41,8 -160.82,13.2 -241.31,14.4 -80.4,2.1 -160.76,1 -240.87,-2.7 -80.08,-4.3 -159.97,-10.6 -239.19,-21.7 -79.18,-10.7 -158.14,-23.8 -235.43,-43.5 -77.51,-18.7 -153.79,-42 -228.09,-70.6 -74.21,-28.8 -145.68,-63.9 -214.7,-103.6 -68.33,-40.8 -132.63,-88.2 -192.73,-140.9 -60.42,-52.7 -112.54,-113.9 -162.55,-177.5 41.49,69.4 90.87,134.4 147.15,193.5 57.59,57.7 120.74,110.3 189.45,155 68.76,44.4 142.12,81.4 217.46,113.4 75.93,30.6 154.15,54.9 233.35,74.7 158.93,38 321.89,55.3 484.33,56.5 162.38,0.9 324.92,-13.3 483.13,-47"
         style="fill:#1f4068;fill-opacity:1;fill-rule:nonzero;stroke:none"
         id="path130" />
      <path
         d="m 7913.87,16772.2 c 33.7,47.5 76.63,88 122.93,123.4 46.19,35.9 97.24,65.4 150.6,89.8 26.57,12.4 54.52,21.7 82.07,31.7 28.5,7.1 56.27,16.8 85.49,20.5 57.39,11.7 116.64,12.5 174.16,6.8 -56.76,-13.2 -112.18,-23.6 -165.87,-41.2 -53.84,-16.1 -106.43,-35.6 -157.22,-59.2 -51.29,-22.4 -100.9,-48.8 -149.46,-77.5 -48.51,-29 -95.82,-60.2 -142.7,-94.3"
         style="fill:#1f4068;fill-opacity:1;fill-rule:nonzero;stroke:none"
         id="path132" />
      <path
         d="m 11778.1,16603.8 c 56.2,-20.5 109.5,-47 161.4,-75.6 52.1,-28.5 102.3,-60.1 151.4,-93.3 48.6,-33.9 96.6,-68.8 141.9,-107.1 45.7,-37.7 89.4,-78.1 129.7,-122.1 -52.1,29.3 -101.4,61.6 -150.8,93.7 -49.2,32.2 -97.8,65.2 -146.4,98.1 -48.1,33.6 -96.8,66.4 -144.5,100.8 -48.1,34.1 -95.7,68.7 -142.7,105.5"
         style="fill:#1f4068;fill-opacity:1;fill-rule:nonzero;stroke:none"
         id="path134" />
      <path
         d="m 8047.92,16163.8 c 7.31,40.7 28.37,77.6 52.14,110.8 24.2,33.3 52.91,62.8 83.99,89.2 30.8,26.8 65.05,49 100.1,69.2 17.66,9.9 36.08,18.5 54.33,27.1 18.95,7.4 37.75,14.9 57.4,20.5 -14.75,-14.4 -30.35,-26.9 -45.81,-39.5 -15.25,-12.9 -30.66,-25.3 -46.17,-37.4 -30.4,-25.1 -61.1,-49.1 -90.53,-74.5 -29.54,-25.1 -58.87,-50.4 -86.6,-77.6 -27.45,-27.4 -54.48,-55.2 -78.85,-87.8"
         style="fill:#1f4068;fill-opacity:1;fill-rule:nonzero;stroke:none"
         id="path136" />
      <path
         d="m 8285.34,15752.3 c 24.81,53.5 53.41,104.5 83.33,154.7 29.69,50.4 61.6,99.3 93.94,148 33.03,48.1 66.54,96 102.21,142.3 35.44,46.5 72.19,92 112.59,134.9 -24.95,-53.7 -53.54,-104.8 -83.45,-155 -29.68,-50.3 -61.51,-99.1 -93.82,-147.6 -33.01,-48.1 -66.44,-95.8 -102.1,-142.1 -35.42,-46.4 -72.17,-92 -112.7,-135.2"
         style="fill:#1f4068;fill-opacity:1;fill-rule:nonzero;stroke:none"
         id="path138" />
      <path
         d="m 16128.1,3019.6 c 0,0 1208.4,1473.5 327,2957.9 0,0 -374.9,178.6 -845.4,232.8 0,0 -670.9,111.8 -985.9,-653.1 -314.9,-765 173.3,-2013.9 173.3,-2013.9 522.8,-660.2 1331,-523.7 1331,-523.7"
         style="fill:#1f4168;fill-opacity:1;fill-rule:nonzero;stroke:none"
         id="path140" />
      <path
         d="m 6011.79,2820 c -378.98,-168.4 -761.3,-134.3 -761.3,-134.3 -1685.74,1228.2 -1091.61,2963.5 -1091.61,2963.5 397.9,300.9 983.54,413.8 983.54,413.8 0,0 1336.18,-608.5 1428.48,-1476.4 50.11,-470.7 5.02,-860.7 -46.74,-1119.1 -57.22,-285.6 -246.25,-529.1 -512.37,-647.5"
         style="fill:#1f4168;fill-opacity:1;fill-rule:nonzero;stroke:none"
         id="path142" />
      <path
         d="M 12562.6,7150.5 H 8092.68 V 8901.8 H 12562.6 V 7150.5"
         style="fill:#1f4168;fill-opacity:1;fill-rule:nonzero;stroke:none"
         id="path144" />
      <path
         d="m 8907.72,7489.9 c -5.48,2.7 -10.29,4.5 -14.41,5.4 -4.12,1 -8.93,1.4 -14.42,1.4 -14.65,3.7 -25.19,11.7 -31.59,24.1 -6.41,12.3 -7.78,25.8 -4.12,40.5 3.66,3.6 6.4,11.4 8.25,23.3 1.82,11.9 2.74,21.5 2.74,28.8 3.65,7.4 5.95,12.6 6.87,15.8 0.9,3.2 3.2,12.2 6.86,26.8 2.75,15.6 7.56,37.3 14.42,65.2 6.87,28 14.63,57.9 23.34,90 8.7,32 17.17,62.7 25.41,92 8.24,29.3 15.8,54 22.66,74.1 6.87,20.2 11.67,31.6 14.41,34.4 0,6.4 0,11.4 0,15.1 2.75,17.4 7.78,31.6 15.11,42.5 3.64,10.1 6.87,21.1 9.61,33 2.76,11.9 4.12,19.7 4.12,23.3 3.65,4.6 8.93,15.8 15.79,33.7 6.87,17.8 13.5,35.5 19.92,52.8 5.49,14.7 11.67,30.3 18.53,46.7 6.87,16.5 15.32,36.6 25.41,60.5 0,3.6 0,5.9 0,6.8 3.64,3.7 12.57,22.2 26.78,55.6 14.18,33.4 33.64,76.7 58.36,129.8 3.64,7.3 8.24,15.6 13.73,24.7 5.5,9.2 8.24,15.6 8.24,19.2 4.57,7.4 10.99,10.8 19.22,10.4 8.24,-0.5 16.7,-3.5 25.41,-9 8.69,-5.5 15.31,-13.3 19.91,-23.3 l 13.73,-22 -49.43,-98.9 c -14.66,-25.6 -26.78,-48.9 -36.4,-70 -9.61,-21.1 -14.41,-33.4 -14.41,-37.1 -10.99,-29.3 -20.15,-54 -27.46,-74.1 -7.35,-20.2 -13.74,-38.5 -19.23,-55 -10.09,-28.3 -19.46,-51.7 -28.16,-70 -8.71,-18.3 -13.03,-29.3 -13.03,-32.9 0,1.8 10.06,3.2 30.2,4.1 20.13,0.9 45.77,1.4 76.91,1.4 31.1,0 62.93,0.2 95.43,0.6 32.49,0.5 61.32,0.9 86.51,1.4 25.17,0.5 42.33,1.6 51.49,3.4 l 71.41,6.9 46.69,141.5 c 7.31,25.6 16.92,56.7 28.84,93.3 11.88,36.6 22.42,67.8 31.58,93.4 14.63,42.1 26.09,68.2 34.33,78.3 8.24,10 17.85,15.1 28.83,15.1 2.75,0 6.63,-0.7 11.67,-2.1 5.03,-1.4 10.07,-3.7 15.11,-6.8 5.02,-3.3 8.46,-7.6 10.3,-13.1 10.99,-10.1 16.24,-21.5 15.79,-34.3 -0.46,-12.9 -8.02,-29.8 -22.65,-50.8 -14.66,-24.7 -26.78,-51.5 -36.4,-80.4 -9.61,-28.8 -18.08,-52.4 -25.4,-70.7 0,-11 -1.38,-19.9 -4.12,-26.8 -2.74,-6.8 -5.97,-12.1 -9.61,-15.8 -1.84,-1.8 -5.49,-8.7 -10.99,-20.5 -5.48,-12 -10.53,-23.9 -15.1,-35.8 -4.59,-11.9 -6.87,-19.2 -6.87,-21.9 0,-6.4 -1.37,-14.2 -4.12,-23.4 -2.74,-9.1 -5.96,-15.5 -9.61,-19.2 -1.84,-5.5 -5.97,-19.2 -12.35,-41.2 -6.42,-22 -13.74,-47.8 -21.97,-77.6 -8.25,-29.7 -16.96,-58.6 -26.1,-86.5 -9.16,-27.9 -17.4,-51 -24.72,-69.3 0,-6.4 -2.29,-14.4 -6.86,-24.1 -4.59,-9.6 -6.87,-18 -6.87,-25.4 -3.67,-11 -8.24,-24.7 -13.73,-41.2 -5.49,-16.4 -8.24,-27 -8.24,-31.5 -4.59,-21.1 -9.39,-42.6 -14.42,-64.6 -5.04,-22 -9.16,-40.9 -12.36,-57 -3.22,-16 -4.8,-25.4 -4.8,-28.1 -3.67,-3.7 -9.16,-4.1 -16.48,-1.4 -7.34,2.8 -16.03,6 -26.09,9.6 -17.4,10.1 -27.7,20.9 -30.9,32.3 -3.22,11.4 0.22,27.7 10.31,48.7 4.57,7.4 10.29,25.4 17.15,54.3 6.87,28.8 13.95,57.4 21.29,85.8 5.49,13.7 11.44,32.3 17.85,55.6 6.39,23.4 12.81,47.2 19.22,71.4 6.4,24.3 11.9,44.9 16.49,61.8 4.57,16.9 7.76,26.3 9.61,28.2 0,3.6 0,8.2 0,13.7 -1.85,1.8 -13.28,3.4 -34.33,4.8 -21.07,1.4 -47.17,1.8 -78.27,1.4 -31.13,-0.5 -63.41,-1.4 -96.82,-2.8 -33.43,-1.3 -63.4,-3.9 -89.94,-7.5 -10.09,0 -21.52,0 -34.32,0 -12.84,0 -22.91,0 -30.22,0 -10.09,0 -21.97,0 -35.7,0 -0.92,-2.8 -4.12,-12.4 -9.61,-28.9 -5.5,-16.4 -11.92,-36.4 -19.23,-59.7 -7.33,-23.3 -14.89,-47.1 -22.66,-71.4 -7.78,-24.3 -14.2,-46.2 -19.23,-65.9 -5.03,-19.7 -8.46,-33.7 -10.29,-41.9 -3.67,-16.5 -8.48,-37.1 -14.42,-61.8 -5.96,-24.7 -12.36,-50.1 -19.22,-76.2 -6.87,-26.1 -12.83,-48.7 -17.85,-68 -5.05,-19.2 -8.48,-31.6 -10.31,-37"
         style="fill:#ffffff;fill-opacity:1;fill-rule:nonzero;stroke:none"
         id="path146" />
      <path
         d="m 9967.81,7606.6 c -9.16,9.1 -18.32,21.7 -27.46,37.7 -9.16,16 -16.47,34.6 -21.97,55.7 -1.85,7.3 -2.53,17.3 -2.06,30.2 0.45,12.8 0.21,21.9 -0.69,27.4 -2.74,-6.4 -7.09,-13 -13.04,-19.9 -5.97,-6.9 -11.67,-12.6 -17.17,-17.2 -3.66,-3.6 -11.9,-10.7 -24.72,-21.2 -12.83,-10.6 -25.63,-19 -38.44,-25.4 -30.22,-19.3 -55.17,-29.8 -74.85,-31.6 -19.69,-1.9 -38.23,8.2 -55.6,30.2 -14.66,11.9 -24.96,25.2 -30.9,39.8 -5.97,14.6 -6.18,34.8 -0.7,60.4 1.83,32.1 6.4,63.4 13.75,94.1 7.31,30.7 22.42,71.6 45.31,122.9 19.23,37.5 33.86,65.2 43.94,83.1 10.06,17.8 16.48,28.6 19.22,32.2 13.73,4.6 25.17,4.4 34.34,-0.6 9.14,-5.1 14.63,-14 16.47,-26.8 5.49,-9.2 4.81,-24.7 -2.06,-46.7 -6.86,-22 -18.53,-49 -35.02,-81 -12.83,-31.2 -24.5,-62.3 -35.01,-93.4 -10.53,-31.1 -16.72,-57.7 -18.54,-79.7 -1.85,-21.9 3.65,-35.2 16.48,-39.8 8.23,-4.6 22.66,-3.2 43.25,4.1 20.6,7.4 43.95,25.7 70.03,55 26.1,29.3 51.51,73.7 76.22,133.2 7.32,18.3 12.81,34.5 16.48,48.7 3.64,14.2 5.95,30 6.86,47.4 -1.84,11 -1.16,20.8 2.06,29.5 3.2,8.7 10.31,16.3 21.28,22.7 3.66,4.5 8.73,8.9 15.13,13 6.4,4.1 10.5,3.9 12.3,-0.7 l 22,1.4 c 3.7,0.9 6.2,-1.1 7.6,-6.2 1.3,-5 4.3,-9.4 8.9,-13 10.1,-8.3 12.8,-26.1 8.2,-53.6 -4.6,-27.4 -17.4,-65.9 -38.4,-115.3 -17.4,-37.6 -29.1,-65.9 -35.03,-85.2 -5.97,-19.2 -9.41,-38 -10.31,-56.3 0,-16.4 3.21,-32 9.61,-46.6 6.43,-14.7 16.53,-28 30.23,-39.9 10,-6.4 15.8,-13.7 17.2,-21.9 1.3,-8.3 1.5,-17.9 0.6,-28.9 -1.8,-8.2 -7.1,-14.9 -15.8,-19.9 -8.7,-5 -18.5,-7.5 -29.47,-7.5 -10.99,0 -21.08,3.2 -30.22,9.6"
         style="fill:#ffffff;fill-opacity:1;fill-rule:nonzero;stroke:none"
         id="path148" />
      <path
         d="m 10767,7661.5 c -4.6,1.8 -11.4,6.4 -20.6,13.7 -9.2,7.3 -16.9,19.9 -23.3,37.8 -6.4,17.8 -9.6,42.8 -9.6,74.8 0.9,27.5 1.5,49 2,64.6 0.5,15.5 -3,23.3 -10.3,23.3 -7.3,0 -21.3,-7.1 -41.9,-21.3 -20.6,-14.2 -44.1,-33.2 -70.7,-56.9 -26.5,-23.9 -53.5,-50.4 -81,-79.7 -9.2,-10.1 -18.1,-19.5 -26.8,-28.2 -8.7,-8.7 -17.2,-14.2 -25.4,-16.4 -8.2,-2.3 -17.8,0.7 -28.8,8.9 l -15.1,12.4 c -4.6,4.5 -7.4,9.3 -8.3,14.4 -0.9,5 -0.4,10.7 1.4,17.1 l 31.6,90.7 c 14.6,32.9 24.7,57 30.2,72.1 5.5,15.1 8.2,24.7 8.2,28.8 0,4.1 -1.3,5.7 -4.1,4.8 -7.3,-0.9 -18.3,-5.3 -32.9,-13 -14.7,-7.8 -24.3,-15.4 -28.9,-22.7 -3.6,0 -9.1,-4.1 -16.4,-12.4 -7.4,-8.2 -16.5,-16 -27.5,-23.3 -6.4,-11 -19,-25.2 -37.8,-42.6 -18.8,-17.4 -37.3,-35.2 -55.6,-53.5 -11.9,-10.1 -23.6,-22.5 -35,-37.1 -11.5,-14.7 -21.1,-27.5 -28.8,-38.4 -7.8,-11 -13.1,-16.5 -15.8,-16.5 -12,0 -22.7,3.2 -32.3,9.6 -9.6,6.4 -16.7,16.9 -21.3,31.6 -7.3,15.5 -7.3,37.3 0,65.2 7.3,27.9 15.6,64.3 24.7,109.2 3.7,13.7 6,23.8 6.9,30.2 0.9,6.4 2.5,13 4.8,19.9 2.3,6.8 6.4,17.6 12.4,32.3 5.9,14.6 15.3,36.6 28.1,65.9 6.4,17.4 10.3,30.4 11.7,39.1 1.3,8.7 2,14.9 2,18.5 0,9.2 2.5,17 7.6,23.4 5,6.4 11.2,11 18.5,13.7 7.3,2.8 14.2,3.2 20.6,1.4 10.1,-1.9 19,-6.9 26.8,-15.1 7.8,-8.2 12.1,-19.7 13,-34.3 0.9,-11 0,-20.9 -2.7,-29.6 -2.7,-8.7 -5.5,-16.7 -8.2,-24 l -15.1,-37.1 c -4.6,-10.1 -10.6,-24.7 -17.9,-43.9 -7.3,-19.2 -13.7,-36.9 -19.2,-52.9 -5.5,-16 -8.3,-25.4 -8.3,-28.1 0.9,-2.8 4.2,-2.1 9.6,2 5.5,4.2 12.6,10.1 21.3,17.9 8.7,7.7 17.7,15.3 26.8,22.6 19.2,18.3 41,36 65.2,52.9 24.3,16.9 47.4,31.3 69.4,43.3 22,11.8 38.9,19.6 50.8,23.3 15.6,0 26.3,-2.7 32.3,-8.2 5.9,-5.5 16.2,-15.6 30.9,-30.2 6.4,-6.5 10,-14.7 10.9,-24.8 1,-10 0.5,-19.7 -1.3,-28.8 -0.9,-3.7 -3.7,-12.6 -8.3,-26.8 -4.6,-14.2 -10.9,-34.1 -19.2,-59.7 21.1,18.3 38,32.7 50.8,43.2 12.8,10.6 22.4,18.6 28.9,24.1 35.7,27.4 66.8,44.8 93.3,52.2 26.6,7.3 48.1,-2.3 64.6,-28.9 11,-10.1 16.7,-21.1 17.1,-32.9 0.5,-11.9 0.7,-32.5 0.7,-61.8 0.9,-11.9 1.9,-26.1 2.8,-42.6 0.9,-16.5 2,-31.4 3.4,-44.6 1.4,-13.3 3,-21.3 4.8,-24.1 2.8,-3.6 8,-6.6 15.8,-8.9 7.8,-2.3 18.1,-4.3 30.9,-6.2 13.7,-1.8 22,-7.8 24.7,-17.8 2.8,-10.1 -3.2,-19.7 -17.8,-28.9 -13.8,-8.2 -28.9,-11.9 -45.4,-10.9 -16.4,0.9 -31.1,3.6 -43.9,8.2"
         style="fill:#ffffff;fill-opacity:1;fill-rule:nonzero;stroke:none"
         id="path150" />
      <path
         d="m 11037.5,7724.7 c 15.6,9.1 33.4,22.6 53.6,40.5 20.1,17.8 39.8,37.5 59,59 19.3,21.5 35.3,41.4 48.1,59.8 15.5,21 27.5,40.7 35.7,59 8.2,18.3 14.2,35.7 17.8,52.2 -3.6,10.1 -9.6,20.8 -17.8,32.3 -8.2,11.4 -15.6,17.6 -22,18.5 -20.1,0 -41.4,-12.6 -63.8,-37.8 -22.5,-25.2 -44.2,-52.4 -65.3,-81.7 -3.6,-4.6 -8.7,-11.9 -15.1,-21.9 -6.4,-10.1 -12.6,-19.5 -18.5,-28.2 -6,-8.7 -9.9,-14.4 -11.7,-17.2 -2.7,-3.6 -8,-13.9 -15.8,-30.9 -7.8,-16.9 -15.3,-33.8 -22.6,-50.8 -7.4,-16.9 -11,-28.1 -11,-33.6 0,-5.5 0.7,-11.5 2,-17.9 1.4,-6.4 5.8,-10.5 13.1,-12.3 7.3,-1.9 18.7,1.8 34.3,11 z m -4.1,-81 c -7.3,-1.9 -16.9,-2.6 -28.8,-2.1 -11.9,0.4 -22.2,1.8 -30.9,4.1 -8.7,2.3 -13.1,4.8 -13.1,7.6 0,4.5 -2.3,6.8 -6.8,6.8 -8.3,7.3 -16.5,12.8 -24.8,16.5 -8.2,12.8 -12.3,26.8 -12.3,41.9 0,15.1 4.1,39.1 12.3,72.1 2.8,22.9 11.7,49.6 26.8,80.3 15.1,30.7 33.7,62 55.6,94.1 22,32 45.1,60.8 69.4,86.5 24.2,25.6 46.4,44.4 66.6,56.3 12.8,12.8 28.3,19.7 46.7,20.6 18.3,0.9 35.7,-3.2 52.2,-12.4 9.1,-4.6 18.3,-11.9 27.4,-21.9 9.2,-10.1 17.9,-21.1 26.1,-33 8.2,-11.9 15.1,-23.8 20.6,-35.7 2.7,-10.1 4.3,-19 4.8,-26.8 0.5,-7.8 0.5,-17.1 0,-28.1 -0.5,-11 -2.1,-27.5 -4.8,-49.5 -4.6,-16.4 -8.5,-36.6 -11.7,-60.4 -3.2,-23.8 -4.8,-44.4 -4.8,-61.8 -1.8,-17.4 0.2,-29.7 6.2,-37.1 5.9,-7.3 14.9,-7.7 26.8,-1.3 11,5.5 21.5,8 31.6,7.5 10,-0.4 18,-3.4 24,-8.9 5.9,-5.5 8.9,-13.7 8.9,-24.7 0,-11 -5.3,-22.2 -15.8,-33.7 -10.5,-11.4 -23.3,-21 -38.4,-28.8 -15.1,-7.8 -29.5,-11.7 -43.3,-11.7 -10.1,0 -19.7,6.2 -28.8,18.6 -9.2,12.3 -17.2,27.4 -24,45.3 -6.9,17.8 -13.1,35 -18.6,51.5 l -8.2,31.6 -59.1,-56.3 c -11.9,-12.9 -23.5,-24.5 -35,-35.1 -11.4,-10.5 -18.5,-18 -21.3,-22.6 -4.6,-8.3 -13,-16.5 -25.4,-24.7 -12.3,-8.3 -29,-16.5 -50.1,-24.7"
         style="fill:#ffffff;fill-opacity:1;fill-rule:nonzero;stroke:none"
         id="path152" />
      <path
         d="m 11893,7620.3 c -9.2,0 -18.5,5 -28.2,15.1 -9.6,10.1 -17.8,22.7 -24.7,37.8 -6.8,15.1 -10.3,29.5 -10.3,43.2 0,13.8 3.5,39.4 10.3,76.9 6.9,37.6 15.3,75.6 25.4,114 7.4,23.8 9.6,37.5 6.9,41.2 -2.7,3.6 -15.1,-1.4 -37.1,-15.1 -12.8,-6.4 -24.2,-13 -34.3,-19.9 -10.1,-6.9 -18.8,-14.4 -26.1,-22.7 -4.6,-3.6 -11.5,-9.6 -20.6,-17.8 -9.2,-8.3 -18.8,-16.1 -28.8,-23.4 -11.9,-9.1 -27,-21.9 -45.3,-38.4 -18.4,-16.5 -36.4,-33 -54.3,-49.5 -17.8,-16.4 -31.4,-29.3 -40.5,-38.4 -1.8,-3.7 -4.6,-6.9 -8.2,-9.6 -3.7,-2.8 -7.8,-4.4 -12.4,-4.8 -4.6,-0.5 -9.6,0.2 -15.1,2 -10.1,2.8 -19.5,8.7 -28.1,17.9 -8.8,9.1 -13.1,19.7 -13.1,31.6 0,9.1 3.6,24.9 11,47.3 7.3,22.5 17.2,49.7 29.5,81.8 12.4,32 26.8,65.9 43.3,101.6 2.7,4.5 5,10.3 6.8,17.1 1.9,6.9 3.5,14.5 4.8,22.7 1.4,8.2 2.1,16 2.1,23.3 0,4.6 0.7,9.4 2.1,14.5 1.3,5 3.2,10 5.5,15.1 2.2,5 4.3,8.4 6.1,10.3 3.7,7.3 10.1,9.3 19.3,6.1 9.1,-3.2 16.9,-9.8 23.3,-19.9 13.7,-12.8 20.8,-28.8 21.3,-48 0.4,-19.3 -4.4,-43.1 -14.4,-71.4 -3.7,-6.5 -6.7,-12.6 -9,-18.6 -2.3,-5.9 -4.3,-11 -6.1,-15.1 -1.9,-4.1 -3.7,-8.5 -5.5,-13 3.6,0 11.9,4.1 24.7,12.3 12.8,8.3 27.9,17.4 45.3,27.5 13.7,10.1 25.9,19.4 36.4,28.1 10.5,8.7 19.4,15.6 26.8,20.6 7.3,5.1 11.9,7.6 13.7,7.6 3.7,0 8.2,1.4 13.7,4.1 5.5,2.8 10.1,6 13.8,9.6 3.6,3.7 7.7,6 12.3,6.9 7.3,0.9 12.8,3.2 16.5,6.9 7.3,5.5 16.9,7 28.8,4.8 11.9,-2.3 22.9,-7.1 33,-14.5 10.1,-7.3 15.1,-15.5 15.1,-24.7 0,-3.6 2.3,-7.8 6.9,-12.3 7.3,0 12.1,-11.5 14.4,-34.4 2.3,-22.9 -0.3,-44.8 -7.6,-65.9 0,-13.7 -2.5,-30.2 -7.5,-49.4 -5.1,-19.2 -9.4,-37.6 -13.1,-54.9 -7.3,-22.9 -12.3,-43.1 -15.1,-60.5 -2.7,-17.4 -3.2,-32 -1.3,-43.9 1.8,-11.9 5,-21.5 9.6,-28.8 3.6,-6.5 3.6,-13.6 0,-21.3 -3.7,-7.8 -11,-11.7 -22,-11.7"
         style="fill:#ffffff;fill-opacity:1;fill-rule:nonzero;stroke:none"
         id="path154" />
      <path
         d="m 14178.5,6137.9 16.9,2025.2 c 16.7,-1117.5 507,-1999.9 507,-1999.9 l -523.9,-25.3"
         style="fill:#d67813;fill-opacity:1;fill-rule:nonzero;stroke:none"
         id="path156" />
      <path
         d="m 16455.1,7951.1 c 0,0 -366.8,428.7 -882.5,428.7 -140.5,0 -291.9,-31.7 -450,-112.6 0,0 250.7,161.7 562.5,161.7 249.9,0 539,-103.8 770,-477.8"
         style="fill:#d67813;fill-opacity:1;fill-rule:nonzero;stroke:none"
         id="path158" />
      <path
         d="m 12934.6,2794.2 c -404.1,0 -1194,123.1 -2386.4,835.1 249.6,-146.7 1431.5,-800.9 2653.5,-801 17.6,0 34.9,0.2 52.5,0.4 0,0 -105.8,-34.5 -319.6,-34.5 m -2386.4,835.1 c -31.5,18.5 -48.2,29 -48.2,29 16.1,-9.7 32.3,-19.5 48.2,-29"
         style="fill:#d67813;fill-opacity:1;fill-rule:nonzero;stroke:none"
         id="path160" />
      <path
         d="m 6037.44,6183.7 c -0.07,0 -0.14,0 -0.2,0 -1.28,0.5 0.29,1.4 4.22,2.8 -1.95,-1.8 -3.3,-2.8 -4.02,-2.8 m 4.02,2.8 c 46.61,44.4 432.44,617.7 483.08,1542 0,0 -34.63,-1281.9 -146.58,-1466.9 0,0 -295.65,-60.7 -336.5,-75.1"
         style="fill:#d67813;fill-opacity:1;fill-rule:nonzero;stroke:none"
         id="path162" />
      <path
         d="m 3507.95,5205.2 c -55.09,370.3 650.93,444 650.93,444 -221.79,-99.9 -650.93,-444 -650.93,-444"
         style="fill:#d67813;fill-opacity:1;fill-rule:nonzero;stroke:none"
         id="path164" />
      <path
         d="m 17252.1,5616.6 c 0,0 -330.8,259.7 -797,360.9 v 0 c 0,0 23,1.5 61.1,1.5 173.9,0 663.7,-29.9 735.9,-362.4"
         style="fill:#d67813;fill-opacity:1;fill-rule:nonzero;stroke:none"
         id="path166" />
      <path
         d="m 14182,6541.5 c -3.9,136.3 -5.8,272.6 -7.9,409 -1.5,136.3 -2.4,272.6 -3,409 -0.9,272.7 1.8,545.3 5.1,818 5.4,272.7 11.9,545.3 22.5,817.8 6.4,136.2 11.7,272.5 19.7,408.6 7.5,136.1 17.1,272.2 27.3,408.1 -5.7,-136.2 -13.3,-272.3 -17.5,-408.6 -6.1,-136.2 -9.6,-272.4 -14.1,-408.6 -7.4,-272.5 -14.1,-545 -17.9,-817.6 -5,-272.6 -7.4,-545.2 -9.7,-817.8 l -2.6,-408.9 -1.9,-409"
         style="fill:#a65b3c;fill-opacity:1;fill-rule:nonzero;stroke:none"
         id="path168" />
      <path
         d="m 14203.3,8901.8 c 4.9,61.1 18.4,121.7 37.6,180.2 18.9,58.6 44.4,115.2 74.6,169 14.6,27.2 32.4,52.5 49.3,78.4 l 28.2,36.7 c 4.8,6 9.1,12.5 14.4,18.1 l 15.6,17.2 c 40,47 88.3,86.1 137.8,121.9 -44.7,-42 -88.6,-84.1 -126,-132.1 -19.8,-22.9 -36.5,-48.3 -54.5,-72.6 -16,-25.7 -33.4,-50.5 -47.4,-77.4 -30,-52.6 -55.8,-107.6 -77.3,-164.4 -5.4,-14.2 -10.2,-28.6 -15.5,-42.9 -4.7,-14.4 -9.5,-28.9 -13.9,-43.5 -9.1,-29 -16.5,-58.6 -22.9,-88.6"
         style="fill:#a65b3c;fill-opacity:1;fill-rule:nonzero;stroke:none"
         id="path170" />
      <path
         d="m 7939.7,5457.6 c 394.04,-316.9 798.36,-620.5 1209.25,-914.9 205.27,-147.4 412.12,-292.8 623.51,-431.5 211.06,-139.1 426.34,-271.9 645.04,-398.4 218.6,-126.9 441.1,-247 667.1,-359.7 112.9,-56.6 227.3,-110.1 342.7,-161.4 57.6,-25.7 115.7,-50.4 173.8,-75 58.5,-23.8 116.9,-47.8 176,-69.9 235.8,-89.3 477.4,-165.8 725.5,-211.6 123.9,-22.7 249.4,-38.2 375.5,-40.9 125.9,-2.6 252.7,6.6 375.8,35.4 l 0.5,-1.9 c -122.6,-31.5 -249.8,-44.3 -376.4,-43.6 -126.8,0.8 -253.3,13.9 -378.2,35.6 -124.9,21.8 -248.2,51.5 -370,86.4 -121.8,35.2 -241.5,76.8 -360,121.4 -237.3,88.9 -467.6,194.9 -693.6,308.7 -226.1,113.8 -446.7,237.9 -664.2,367 -108.7,64.7 -216.4,131 -323.6,198 -107.11,67.2 -213.59,135.4 -319.73,204.1 -52.95,34.6 -105.88,69.2 -158.52,104.2 -52.9,34.6 -105.42,69.8 -158.01,104.9 -104.9,70.6 -209.25,142.1 -312.79,214.7 -103.17,73.1 -206.2,146.5 -307.71,221.9 -101.6,75.3 -202.58,151.5 -302.92,228.4 -200.26,154.5 -397.98,312.3 -590.31,476.6 l 1.29,1.5"
         style="fill:#a65b3c;fill-opacity:1;fill-rule:nonzero;stroke:none"
         id="path172" />
      <path
         d="m 7139.58,3353.9 c 161.27,-61.4 324.48,-117.3 488.34,-171.2 164.09,-53.1 328.73,-104.5 494.47,-152.2 l 124.38,-35.5 62.14,-17.9 62.41,-16.9 c 83.29,-22.3 166.38,-45.4 249.84,-67 l 250.98,-62.6 c 41.73,-10.8 83.93,-19.7 125.92,-29.5 l 126.1,-28.7 c 42.03,-9.5 83.96,-19.6 126.05,-28.9 l 126.62,-26.3 126.61,-26.4 c 42.24,-8.6 84.29,-18.1 126.79,-25.4 l 254.41,-46.7 c 42.4,-7.8 84.77,-15.8 127.46,-22.1 l 127.7,-20.6 127.7,-20.5 c 42.5,-6.8 85,-14.1 127.9,-19.3 l 256.4,-34 64.1,-8.7 32.1,-4.4 c 10.7,-1.4 21.4,-2.3 32.1,-3.5 l 128.7,-13.6 257.3,-27.6 -257.9,22.3 -128.9,11.4 c -10.8,1 -21.5,1.8 -32.2,2.9 l -32.2,3.8 -64.3,7.6 -257,31.3 c -42.9,4.7 -85.5,11.6 -128.2,17.9 l -128,19.2 c -171.13,23.4 -340.59,56.6 -510.6,86.7 -42.57,7.1 -84.7,16.6 -127.03,25 l -126.85,26 -126.87,25.9 c -42.17,9.2 -84.2,19 -126.29,28.6 -336.85,75.8 -671.04,163.5 -1001.71,262.8 -165.37,49.5 -329.66,102.6 -493.23,157.7 -162.91,57 -325.6,114.8 -485.24,180.4"
         style="fill:#a65b3c;fill-opacity:1;fill-rule:nonzero;stroke:none"
         id="path174" />
      <path
         d="m 14258.5,9979.9 c 8.2,119.3 21.6,238.2 38.4,356.6 16.7,118.5 37.4,236.4 60.7,353.8 6.1,29.3 12,58.6 18.4,87.8 l 19.7,87.6 c 6.4,29.2 14.3,58.1 21.4,87.2 7.2,29 14.3,58.1 22.6,86.8 30.6,115.7 67.9,229.6 108.6,342 -15.6,-57.8 -34.3,-114.5 -48.6,-172.5 -7.7,-28.9 -15.8,-57.6 -23.2,-86.5 l -21.7,-86.9 c -28,-116 -54.6,-232.3 -77.6,-349.5 -23.7,-116.9 -45.1,-234.4 -64.9,-352.1 -9.6,-58.9 -19.3,-117.9 -28.2,-176.9 -9.4,-59 -17.4,-118.2 -25.6,-177.4"
         style="fill:#a65b3c;fill-opacity:1;fill-rule:nonzero;stroke:none"
         id="path176" />
      <path
         d="m 13257.9,8114.1 c 25.9,-58.4 51.6,-116.8 78.6,-174.6 26.4,-58.1 53.3,-115.9 80.9,-173.4 55.1,-115 111.1,-229.5 170.5,-342.3 58.1,-113.5 120.6,-224.6 184.4,-334.9 32.8,-54.6 64.9,-109.7 99.9,-162.9 33,-54.7 70.2,-106.4 105.2,-159.9 -38.6,50.8 -77.6,101.5 -113.3,154.4 -36.8,52.4 -70.4,106.7 -105,160.5 -16.9,27.1 -33.1,54.6 -49.3,82.2 l -24.3,41.3 -23.5,41.8 c -15.5,27.9 -31.6,55.6 -46.6,83.8 l -45.2,84.5 c -58.1,113.8 -114.5,228.5 -166.7,345.1 -25.9,58.4 -51.4,116.9 -75.9,175.9 -24.1,59.1 -48,118.4 -69.7,178.5"
         style="fill:#a65b3c;fill-opacity:1;fill-rule:nonzero;stroke:none"
         id="path178" />
      <path
         d="m 14511.9,7755.2 c 59.8,77.1 125.8,149.3 196,217.3 70.6,67.5 146,130.2 225.7,187.1 79.5,57 164.3,106.9 252.7,149.2 88.5,42.2 181.2,76.1 277.1,98.2 95.9,21.4 194.9,30.7 293.3,23.5 98.1,-8 195.3,-32.5 284,-75.4 88.8,-42.5 169.1,-101.4 238.2,-170.8 68.7,-69.8 127.1,-149 176.2,-233.2 -52.9,81.8 -112.7,159.4 -183.1,226.2 -69.8,67.3 -149.9,123.9 -237.8,163.8 -87.9,39.9 -182.6,64.3 -278.9,71.2 -96.3,6.5 -193.4,-3.2 -287.5,-24.8 -94.4,-21.1 -186,-54 -273.7,-95.1 -87.9,-41 -171.5,-90.8 -251.7,-145.4 -80.2,-54.9 -156.1,-115.9 -227.8,-181.6 -72.2,-65.3 -139.5,-136 -202.7,-210.2"
         style="fill:#a65b3c;fill-opacity:1;fill-rule:nonzero;stroke:none"
         id="path180" />
      <path
         d="m 15146.9,8530.1 c 84.8,60.2 178.6,107.8 276.3,144.4 48.9,18.4 99.1,33.3 150.1,45.3 51,11.7 103,19.4 155.2,23.5 26.1,2.3 52.4,2.3 78.6,2.7 26.2,-1 52.5,-1.4 78.6,-4.6 52.1,-5.6 104,-14.9 154,-31 l 18.8,-5.7 c 6.3,-1.9 12.3,-4.5 18.5,-6.7 l 36.7,-14 35.6,-16.5 c 12,-5.2 23.4,-11.5 34.8,-17.9 11.3,-6.6 22.9,-12.6 34,-19.5 l 32.6,-21.5 c 5.4,-3.6 11,-6.9 16.2,-10.9 l 15.5,-11.9 30.8,-23.9 c -43.3,28.7 -86.4,57.6 -133.6,78.9 -22.7,12.3 -47.2,20.9 -70.8,31 l -36.5,12.5 c -6.1,2 -12.1,4.4 -18.3,6.1 l -18.7,5 c -12.4,3.1 -24.7,7.2 -37.3,9.5 l -37.8,7.8 c -12.6,2.4 -25.4,3.7 -38.1,5.7 -6.3,0.8 -12.6,1.9 -19,2.6 l -19.2,1.5 c -25.6,2.8 -51.3,3.2 -76.9,4 -25.7,-0.6 -51.4,-0.7 -77,-3.1 -102.6,-7.2 -203.9,-30.4 -301.5,-63.6 -48.9,-16.7 -96.9,-35.8 -144,-57.4 -47.1,-21.4 -93.2,-45.4 -137.6,-72.3"
         style="fill:#a65b3c;fill-opacity:1;fill-rule:nonzero;stroke:none"
         id="path182" />
      <path
         d="m 5665.89,9427.8 c 91.79,-50.2 178.6,-109.7 260.98,-174.5 82.54,-64.8 160.01,-136 232.72,-211.7 l 27.04,-28.6 13.51,-14.3 12.88,-14.9 51.32,-59.7 c 16.72,-20.2 32.15,-41.5 48.29,-62.2 l 23.93,-31.3 c 7.57,-10.7 14.73,-21.7 22.11,-32.6 l 43.81,-65.3 39.44,-68.1 c 6.43,-11.4 13.06,-22.7 19.32,-34.2 l 17.11,-35.4 c 11.48,-23.6 22.72,-47.2 33.78,-70.9 -13.01,22.8 -25.85,45.5 -38.46,68.4 l -19.01,34.2 c -6.89,11 -14.14,21.9 -21.18,32.9 l -41.98,65.9 -45.56,63.5 c -7.64,10.5 -15.05,21.2 -22.86,31.6 l -24.33,30.6 c -16.38,20.2 -32.03,41 -48.98,60.8 l -51.33,58.8 -12.84,14.7 -13.49,14.1 -26.96,28.2 c -71.82,75.4 -148.05,146.6 -228.07,213.4 l -60.72,49.2 c -20.71,15.9 -41.14,32.1 -62.11,47.6 -41.59,31.6 -84.48,61.4 -128.36,89.8"
         style="fill:#a65b3c;fill-opacity:1;fill-rule:nonzero;stroke:none"
         id="path184" />
      <path
         d="m 6255.79,7643.7 c -91.51,41.9 -186.1,76.5 -281.95,106.4 -95.87,30 -193.25,54.9 -291.75,73.9 -98.53,18.8 -197.9,33.1 -297.89,40.1 -99.97,6.8 -200.38,6.3 -300.09,-1.8 l -37.41,-3.1 -18.69,-1.6 -18.6,-2.5 -74.37,-10 -73.7,-14.1 -18.42,-3.5 -18.19,-4.6 -36.38,-9.2 -36.38,-9.2 c -12,-3.5 -23.84,-7.5 -35.78,-11.3 l -35.74,-11.4 c -11.87,-3.9 -23.98,-7.2 -35.49,-12.1 l -69.88,-27.3 c -11.82,-4.2 -23.02,-9.8 -34.39,-15 l -34.04,-15.8 -34.06,-15.8 c -11.16,-5.7 -21.98,-12 -32.99,-18 -21.85,-12.2 -44.03,-23.9 -65.64,-36.5 l -63.12,-40.8 -15.79,-10.2 -7.9,-5.1 -7.51,-5.7 -30.07,-22.5 C 4167.3,7499.2 4095.1,7428.8 4023.7,7358 l 51.72,55 26.03,27.4 c 8.55,9.2 18.37,17.2 27.51,25.8 l 55.83,51 c 9.03,8.9 19.44,16.1 29.18,24.1 l 29.68,23.5 29.81,23.3 7.47,5.8 7.85,5.3 15.7,10.6 62.86,42.3 c 21.56,13.1 43.7,25.3 65.54,38 11,6.2 21.81,12.8 32.97,18.7 l 34.1,16.6 c 90.01,46.3 186.21,79.7 283.8,105.9 l 36.74,9.5 18.37,4.8 18.61,3.6 74.45,14.7 75.13,10.6 18.79,2.7 18.89,1.7 37.79,3.3 c 100.85,7.6 202.22,7.5 302.99,0 100.71,-7.9 200.95,-21.9 299.62,-43.1 197.21,-42.3 390.53,-105.2 570.66,-195.4"
         style="fill:#a65b3c;fill-opacity:1;fill-rule:nonzero;stroke:none"
         id="path186" />
      <path
         d="m 5326.85,8126.5 c -49.74,8.7 -99.75,15.2 -149.97,19 -50.15,4.4 -100.43,6.7 -150.68,7.3 -50.25,0.4 -100.49,-0.7 -150.56,-4.2 -50.08,-3.2 -100.02,-8.5 -149.51,-16.6 -49.54,-7.6 -98.8,-17.3 -147.23,-30.2 l -18.24,-4.6 -18.05,-5.2 c -12,-3.6 -24.13,-6.8 -36.04,-10.7 -23.74,-8 -47.66,-15.6 -70.99,-24.8 -23.69,-8.3 -46.45,-18.8 -69.67,-28.4 -11.44,-5.2 -22.69,-10.7 -34.06,-16.1 l -17.03,-8 -16.63,-8.9 c -45.25,-22.1 -87.3,-49.9 -129.69,-77.4 79.02,62.8 167.05,115.5 261.34,153.4 93.83,39 192.92,64.9 293.22,80.7 100.39,15.7 202.28,20.5 303.55,16.6 101.22,-4.3 202.31,-16.8 300.24,-41.9"
         style="fill:#a65b3c;fill-opacity:1;fill-rule:nonzero;stroke:none"
         id="path188" />
      <path
         d="m 5965.86,11266.1 c 63.71,-109.4 113.01,-226.6 158.04,-344.9 44.61,-118.5 81.24,-239.9 114.89,-362 15.28,-61.5 31.03,-122.8 43.86,-184.8 14.07,-61.8 26.11,-123.9 36.9,-186.3 2.7,-15.6 5.81,-31.1 8.16,-46.7 l 7.02,-47 14.02,-93.8 c 4.33,-31.4 7.18,-62.9 10.85,-94.3 3.56,-31.4 6.88,-62.9 10.02,-94.3 -10.87,62.3 -19.65,124.9 -30.57,187.1 l -16.77,93.2 -8.37,46.6 c -2.79,15.5 -6.35,30.9 -9.48,46.4 -6.54,30.9 -12.94,61.8 -18.99,92.7 -5.91,31 -13.77,61.6 -20.55,92.4 -13.35,61.7 -29.7,122.6 -45.41,183.7 -31.91,122 -68.66,242.7 -109.98,361.9 -20.72,59.6 -42.46,118.8 -66.57,177.2 -23.33,58.6 -48.65,116.5 -77.07,172.9"
         style="fill:#a65b3c;fill-opacity:1;fill-rule:nonzero;stroke:none"
         id="path190" />
      <path
         d="m 6448.89,9403.4 c 29.47,-236.9 48.71,-475.1 63.06,-713.5 14.12,-238.5 20.69,-477.3 22.95,-716.2 1.38,-238.9 -4.66,-477.8 -17.69,-716.4 -12.46,-238.6 -36.83,-476.4 -68.32,-713 l 16.94,178.2 c 2.78,29.7 6.02,59.4 8.42,89.1 l 6.16,89.3 c 4.12,59.5 9.19,118.9 12.7,178.5 l 8.74,178.7 c 3.42,59.6 4.4,119.2 6.55,178.8 l 2.86,89.4 1.43,44.7 0.55,44.8 2.22,178.9 c 0.45,59.6 -0.44,119.2 -0.54,178.9 -0.58,238.6 -7.44,477.1 -18.26,715.5 l -9.06,178.7 c -3.76,59.5 -7.04,119.1 -11.18,178.6 -7.41,119.2 -16.87,238.1 -27.53,357"
         style="fill:#a65b3c;fill-opacity:1;fill-rule:nonzero;stroke:none"
         id="path192" />
      <path
         d="m 4158.89,5649.2 c -55.95,-34.8 -111.07,-70.5 -166.19,-106.2 -54.97,-35.9 -109.8,-71.9 -163.83,-109.2 -54.31,-36.8 -108.04,-74.4 -161.38,-112.7 -53.5,-38.1 -106.23,-77.2 -159.55,-115.9 48.34,44.7 98.05,88.1 150.18,128.4 25.62,20.7 52.38,40 78.69,59.8 26.8,19.2 53.52,38.5 80.81,57 54.49,37 110.05,72.5 166.89,105.8 56.7,33.6 114.72,65 174.38,93"
         style="fill:#a65b3c;fill-opacity:1;fill-rule:nonzero;stroke:none"
         id="path194" />
      <path
         d="m 4451.77,5816.5 c -40.84,9.8 -82.29,16 -123.89,20 -41.58,4.1 -83.3,6 -124.99,6.2 -41.68,-0.1 -83.35,-1.7 -124.81,-5.7 -41.46,-3.7 -82.8,-9.1 -123.68,-17 -40.95,-7.4 -81.63,-16.6 -121.69,-28 -20.2,-5.1 -39.98,-11.7 -59.92,-17.7 -9.93,-3.2 -19.69,-6.8 -29.58,-10.2 -9.86,-3.3 -19.8,-6.5 -29.48,-10.4 -78.12,-29.3 -154.28,-64.3 -228,-104.5 69.67,46.9 144.24,87 222.32,119.1 78.01,32.2 159.62,56 242.75,71.4 83.16,15.2 167.99,21.6 252.39,18.5 84.25,-3.3 168.79,-14.9 248.58,-41.7"
         style="fill:#a65b3c;fill-opacity:1;fill-rule:nonzero;stroke:none"
         id="path196" />
      <path
         d="m 16455.1,5977.5 c 72.3,-13.2 143.6,-32.2 213.5,-54.9 70.1,-22.4 138.8,-49.2 206.2,-78.8 33.8,-14.8 66.8,-31.1 99.8,-47.5 16.4,-8.3 32.4,-17.5 48.7,-26.2 l 24.2,-13.2 c 8,-4.5 15.8,-9.5 23.7,-14.2 63.9,-36.7 123.6,-80.4 180.9,-126.1 -15.6,9.7 -31.1,19.5 -46.5,29.5 l -23.1,14.9 -23.7,13.8 -47.2,28 -48.1,26.3 c -64.4,34.6 -129.8,67.3 -196.8,96.4 -66.7,29.8 -134.5,57.1 -203.1,82.4 l -51.7,18.6 -51.9,17.8 c -34.7,12 -69.7,22.7 -104.9,33.2"
         style="fill:#a65b3c;fill-opacity:1;fill-rule:nonzero;stroke:none"
         id="path198" />
      <path
         d="m 16334.3,6028.2 c 62.4,17 126.1,28.9 190.3,36.9 32.1,4.2 64.4,6.9 96.7,9.1 32.4,2 64.8,2.6 97.3,2.5 64.8,-1.1 130,-6.4 193.6,-20.8 63.4,-13.7 125.8,-37.7 178.2,-75.6 -28.3,15.5 -57.8,28.2 -88.4,37.6 -30.3,10 -61.5,17.2 -92.9,22.7 -31.5,5.3 -63.1,9.7 -95,11.8 -31.8,2.5 -63.8,4.3 -95.8,4.3 -64,1 -128.1,-2.1 -192.1,-7.1 -32,-2.6 -64,-5.6 -96,-9.2 -32,-3.2 -63.9,-7.7 -95.9,-12.2"
         style="fill:#a65b3c;fill-opacity:1;fill-rule:nonzero;stroke:none"
         id="path200" />
      <path
         d="m 15636,6206.3 -1585,365.4 c 0,0 -1333.3,573 -2428,1621.4 -182.6,174.8 -300.3,406.4 -334.3,656.8 -41.3,304.2 -98.3,716.3 -129,904 -34.8,212.6 -97.6,419.6 -173.2,621.3 v 0 c -82,218.6 -143.2,444.4 -182.8,674.5 l -109.8,637.7 -76.2,1003.4 c -7.2,94.6 -104.6,154.9 -192.4,118.8 -64.8,-26.7 -132.1,-79.9 -174.4,-183.4 0,0 -14.1,21.7 -40.2,44.3 -61.4,53.3 -157.6,21.5 -175.6,-57.7 l -45.98,-212.6 c -26.22,7.9 -53.17,-9.9 -56.19,-37.1 l -40.17,-375.5 -131.97,-579.6 -214.42,-686.5 c -39.09,-125.1 -91.47,-245.8 -156.25,-359.8 -99,-174.2 -168.81,-363.5 -206.68,-560.2 L 9006.01,8879.6 C 8970.96,8697.5 8889.66,8527.4 8769.47,8386.2 8307.87,7844 7011.25,6504.6 5142.43,6063 c 0,0 -666.08,-363.2 -152.63,-1621.8 501.14,-1228.3 1261.83,-1212.8 1261.83,-1212.8 0,0 2063.33,1665.9 3133.45,4025.6 80.7,178 210.56,330 376.93,432.5 152.86,94.2 330.19,249.1 376.39,476.6 0,0 104.6,-368.8 452.6,-597.8 84.1,-55.3 156.1,-127.2 213.1,-210.1 494.7,-719.8 2674.1,-3755.8 4697.4,-4000.5 394.1,114.8 989,2193.9 134.5,2851.6"
         style="fill:#ffc89f;fill-opacity:1;fill-rule:nonzero;stroke:none"
         id="path202" />
      <path
         d="m 9989.12,12400.2 c 22.88,3.3 46.58,0.8 69.08,-5.5 22.7,-6.1 44.3,-16.8 63.5,-30.7 l 7.1,-5.3 6.6,-6 c 4.3,-4.1 9.1,-7.6 12.9,-12.2 7.7,-9 15.7,-17.8 21.5,-28.1 6.8,-9.6 11.2,-20.6 16,-31.1 4.3,-10.8 7,-22.2 9.6,-33.3 -6.8,9.5 -11.7,19.6 -18.3,28.7 -6.6,9 -12.5,18.4 -20,26.5 -13.7,17.1 -29.8,31.9 -47.2,44.6 -17.3,13.1 -36.5,23.6 -56.7,32.2 -20.3,8.6 -41.6,15.2 -64.08,20.2"
         style="fill:#ff9a6c;fill-opacity:1;fill-rule:nonzero;stroke:none"
         id="path204" />
      <path
         d="m 10930.2,10020.1 c 17.7,-20.3 31.4,-43.9 42.5,-68.5 5.8,-12.2 10.2,-25 14.8,-37.8 3.9,-13 7.6,-26 10.4,-39.3 3,-13.2 4.5,-26.8 6.3,-40.2 0.5,-13.6 2.1,-27.1 1.2,-40.6 -0.2,-27.1 -5.1,-54.1 -12.7,-79.7 -0.6,26.9 -0.2,53.1 -3,79.2 -2.1,26 -5.8,51.8 -11.4,77.2 -5,25.5 -12,50.7 -20.1,75.6 -8.1,24.9 -17.4,49.5 -28,74.1"
         style="fill:#ff9a6c;fill-opacity:1;fill-rule:nonzero;stroke:none"
         id="path206" />
      <path
         d="m 10731.7,7515 c 21,4.7 41.4,9.3 61.8,14.2 20.3,5 40.5,10 60.4,16 20,5.5 39.8,11.8 59.6,18.5 19.9,6.4 39.4,14.1 60,20.6 -16.5,-13.7 -34.6,-25.6 -54,-35 -9.5,-5.2 -19.6,-8.9 -29.5,-13.1 -10.1,-3.7 -20.3,-7.3 -30.6,-10.3 -20.7,-5.8 -41.9,-10.1 -63.3,-12.1 -21.4,-2 -43.1,-2.4 -64.4,1.2"
         style="fill:#ff9a6c;fill-opacity:1;fill-rule:nonzero;stroke:none"
         id="path208" />
      <path
         d="m 9418.1,7774.4 c 19.5,-9.1 38.54,-17.9 57.68,-26.3 19.18,-8.4 38.23,-16.7 57.69,-24 19.29,-7.7 38.84,-14.8 58.62,-21.5 19.74,-7 39.85,-12.7 60.2,-20 -21.47,-0.9 -43.12,0.6 -64.18,4.9 -10.68,1.7 -20.95,4.9 -31.41,7.5 -10.24,3.3 -20.52,6.5 -30.54,10.5 -20,7.9 -39.42,17.4 -57.65,28.8 -18.24,11.3 -35.69,24.2 -50.41,40.1"
         style="fill:#ff9a6c;fill-opacity:1;fill-rule:nonzero;stroke:none"
         id="path210" />
      <path
         d="m 10750.1,9789 c 9.5,-16.7 15.1,-35.3 18.6,-54.1 3.6,-18.8 4.8,-38.1 3.6,-57.3 -1,-19.2 -4.4,-38.3 -10.5,-56.6 -5.5,-18.4 -14.4,-35.6 -25.4,-51.2 3.3,18.9 7.8,36.7 10.3,54.8 2.9,18 4.6,36.1 5.6,54.1 2.4,36.3 0.8,72.4 -2.2,110.3"
         style="fill:#ff9a6c;fill-opacity:1;fill-rule:nonzero;stroke:none"
         id="path212" />
      <path
         d="m 9433.4,10153.6 c -13.96,-20.9 -26.5,-42.1 -38.41,-63.5 -5.84,-10.8 -11.72,-21.5 -17.06,-32.5 l -8.16,-16.4 -7.56,-16.7 c -5.07,-11.1 -9.97,-22.3 -14.41,-33.7 l -6.87,-17 -6.34,-17.3 c -8.7,-23 -15.77,-46.6 -24.29,-70.4 0.3,25.2 3.25,50.4 9.34,74.9 5.38,24.7 14.34,48.5 24.35,71.7 10.48,23.1 23.09,45.2 37.87,65.7 14.74,20.5 31.44,39.8 51.54,55.2"
         style="fill:#ff9a6c;fill-opacity:1;fill-rule:nonzero;stroke:none"
         id="path214" />
      <path
         d="m 10389,12459.8 c -24.7,-1.2 -49.3,-6.3 -71.4,-16.5 -22.2,-10.2 -41.4,-25.7 -56.7,-44.2 -31.2,-37.2 -46,-85.1 -54.3,-132.8 -1.6,-12.1 -4,-24 -4.9,-36.2 l -2.8,-36.5 c -0.3,-24.5 -1.5,-48.9 0.1,-73.4 1.7,-48.9 5.2,-98.7 7.6,-148 5,-98.8 9.7,-197.7 13.2,-296.6 3.8,-98.9 6.3,-197.9 7.5,-296.9 -9,98.7 -16.7,197.3 -23.1,296.1 -6.7,98.7 -12.2,197.5 -17.5,296.3 l -3.6,74.1 c -1.2,24.7 -2.5,49.4 -2.9,74.5 -1.2,24.9 0.4,50 1.2,74.9 l 3.7,37.4 c 1.4,12.5 4.2,24.8 6.2,37.2 5,24.6 12.1,48.9 21.8,72.3 10.7,22.9 22.7,45.6 40.5,64 17.3,18.5 38.4,33.6 61.9,42.6 23.5,9.4 48.8,12.6 73.5,11.7"
         style="fill:#ff9a6c;fill-opacity:1;fill-rule:nonzero;stroke:none"
         id="path216" />
      <path
         d="m 10883.6,10131.6 c -52,195.9 -99.7,392.8 -143.5,590.6 -21.3,99.1 -41.4,198.4 -63.1,297.4 -10.4,49.6 -20.2,99.4 -28.7,149.4 l -24.6,150 c -16.8,99.9 -33.2,199.9 -48.7,300 l -23.3,150.2 c -7.3,50.3 -12.8,101 -17.1,151.5 -8.5,101 -16.1,202 -23.7,303 l -5.4,75.8 -2.6,37.9 c -0.8,12.9 -1.6,24.8 -4.9,36.5 -6.5,23.4 -20.7,44.6 -40,60 -19.4,15.3 -43.9,23.9 -69,24.9 v 2 c 25.5,0.8 51.6,-6.6 72.8,-21.8 21.2,-15 38,-36.9 45.9,-62.2 4.1,-12.5 5.5,-26 6.7,-38.4 l 4.1,-37.8 7.9,-75.5 c 10.2,-100.8 20.3,-201.6 29.5,-302.5 4.3,-50.4 9.9,-100.5 16.5,-150.5 l 21.2,-150.4 c 14.4,-100.2 27.9,-200.6 41,-301.1 6.9,-50.2 12.8,-100.6 20.7,-150.5 7.8,-50 16.8,-99.8 28.1,-149.1 11.3,-49.3 23.9,-98.5 36.1,-147.6 l 36.8,-147.4 c 47.1,-197.1 90.3,-395 129.3,-594 l -2,-0.4"
         style="fill:#ff9a6c;fill-opacity:1;fill-rule:nonzero;stroke:none"
         id="path218" />
      <path
         d="m 10724.5,9885.9 c -19.6,79.7 -37.1,159.8 -54.4,240 -16.9,80.2 -33.5,160.5 -48.1,241.2 -1.6,10.1 -3.7,20.1 -5,30.3 l -3.7,30.6 -7.2,61.1 c -4.8,40.7 -9.6,81.4 -15.3,122 -11.2,81.2 -23.9,162.2 -37.4,243.2 -13.2,80.9 -28.4,161.7 -32.5,243.7 l -10,122.6 c -3,40.9 -6.3,81.8 -8.8,122.8 l -4.1,61.3 c -0.9,19.4 -5.9,37.6 -16,53.8 -19.6,32.3 -57.6,53.3 -96,51 -19.2,-0.6 -37.8,-7.7 -54.9,-17.8 -17.1,-9.9 -31.9,-23.5 -44.2,-39.2 -24.4,-31.6 -37.8,-71.8 -41.1,-112.2 h -2 c -0.1,20.7 3.3,41.2 9.1,61.2 5.9,19.9 14.5,39.2 26.6,56.4 12.2,17.2 27.5,32.4 45.5,43.8 17.6,11.4 38,20.5 60,22.3 43.8,4.3 88.4,-18.6 112.5,-55.6 12.4,-18.3 19.3,-40.7 20.6,-62.2 l 4.9,-61.2 c 14.1,-163.1 17.3,-327.3 42.1,-489.3 9.7,-81.3 20,-162.6 32,-243.6 5.9,-40.6 12.6,-81 19.5,-121.3 l 10.1,-60.6 5,-30.3 c 1.8,-10.1 4.3,-20 6.5,-30 17.2,-80.2 32.4,-160.6 47.2,-241.2 14.6,-80.6 28.8,-161.3 41,-242.4 l -1.9,-0.4"
         style="fill:#ff9a6c;fill-opacity:1;fill-rule:nonzero;stroke:none"
         id="path220" />
      <path
         d="m 9962.54,11341.2 c -8.16,-71.2 -17.59,-142.3 -26.35,-213.4 l -28.42,-213.1 c -4.69,-35.5 -9.45,-71 -14.62,-106.5 -5.23,-35.5 -9.67,-70.8 -15.55,-106.5 -12.13,-71 -27.51,-141.2 -44.88,-211 -17.58,-69.7 -39.06,-138.4 -61.32,-206.7 -23.89,-67.8 -47.95,-135.6 -78.04,-201 l -22.08,-49.2 -24.19,-48.2 c -15.46,-32.4 -33.68,-63.5 -51.43,-94.7 l -13.48,-23.3 -14.81,-22.6 -29.58,-45 c -20.12,-29.7 -43.01,-57.5 -64.57,-86 l 30.33,44.4 15.29,22 7.63,11 6.9,11.6 27.56,46 13.76,23 12.44,23.7 c 16.71,31.6 34.11,62.8 48.62,95.5 l 22.79,48.5 20.69,49.4 c 27.64,65.8 52.05,133 74.9,200.6 21.55,68.1 42.26,136.5 59.24,205.9 17.84,69.2 33.72,138.9 46.32,209.1 11.54,70.3 21.2,141.6 32.94,212.2 l 33.92,212.3 c 12.02,70.7 23.37,141.4 35.99,212"
         style="fill:#ff9a6c;fill-opacity:1;fill-rule:nonzero;stroke:none"
         id="path222" />
      <path
         d="m 10137.4,8163.2 7.8,74 4,37 2.9,37.1 5.8,74.1 4.2,74.3 c 4.4,99 7.4,198.1 6.3,297.2 0.1,24.8 -0.3,49.5 -1,74.3 l -1.7,74.3 -2.2,74.3 -3.3,74.3 c -4.6,99 -10.9,198.1 -21.2,296.6 v 0.5 0.4 c 15.6,199.3 28.8,398.9 39.5,598.5 10.6,199.7 23.1,399.3 35.7,598.9 l 9.6,149.7 c 3.7,50.2 10,100.1 18.2,149.7 16.8,98.2 28.5,197.3 27.2,296.4 -1,49.5 -5.8,98.9 -17.3,146.8 -6.1,23.8 -13.6,47.2 -23.6,69.6 l -8.2,16.4 c -2.8,5.4 -6.1,10.5 -9.1,15.8 -3,5.4 -7.1,9.7 -10.5,14.6 -1.9,2.3 -3.5,4.9 -5.6,7 l -6.5,6.1 c -17.1,16.6 -39.2,28 -62.8,32.6 -23.6,4.7 -48.6,2.6 -71.6,-5.4 -23,-8 -43.9,-22.1 -59.73,-40.9 -15.92,-18.7 -26.25,-41.9 -30.74,-66.3 l -1.98,0.3 c 3.59,24.9 13.2,49.1 28.94,69.1 15.61,20.1 37.01,35.7 60.81,45 47.6,19.7 106.8,10.3 145.3,-25.5 l 7.3,-6.6 c 2.4,-2.2 4.2,-4.9 6.3,-7.4 3.9,-5.2 8.6,-10 11.8,-15.5 3.4,-5.5 7,-10.8 10.1,-16.4 l 8.9,-16.9 c 11.2,-23 19.4,-47.2 26.1,-71.7 12.6,-49.2 18.3,-99.8 20.1,-150.2 3.5,-100.9 -8.3,-201.5 -24.8,-300.2 -8,-49.1 -14.1,-98.4 -17.5,-148 l -10.6,-149.5 c -14.3,-199.4 -28.7,-398.9 -44.9,-598.2 -16.2,-199.3 -29.8,-398.8 -41.1,-598.4 v 0.9 c 12.8,-98.7 21.9,-197.7 28.5,-296.9 l 3.8,-74.4 2.9,-74.6 c 1.2,-24.8 1.1,-49.7 1.5,-74.5 0.3,-24.9 0.6,-49.7 0.2,-74.6 0.1,-99.4 -3.5,-198.8 -10.9,-298 l -6,-74.3 c -2.2,-24.7 -5.3,-49.4 -8.1,-74.1 l -4.3,-37 -5.3,-36.9 -11.2,-73.7 -2,0.3"
         style="fill:#ff9a6c;fill-opacity:1;fill-rule:nonzero;stroke:none"
         id="path224" />
      <path
         d="m 9881.52,11938.2 c -9.21,-73.6 -20.58,-146.9 -31.85,-220.3 -11.8,-73.2 -24.34,-146.3 -37.42,-219.4 l -9.75,-54.8 -10.59,-54.6 c -7.13,-36.4 -14.06,-72.9 -21.66,-109.2 l -22.46,-109.1 -23.53,-108.8 c -8.03,-36.2 -17.03,-72.2 -25.51,-108.4 l -12.89,-54.1 -13.65,-54 c -9.24,-36 -17.99,-72 -27.63,-107.9 -9.64,-35.8 -19.61,-71.6 -29.72,-107.3 -9.9,-35.8 -21.32,-71.1 -31.9,-106.7 l -16.17,-53.3 -17.51,-52.9 -17.93,-52.7 c -5.89,-17.6 -11.89,-35.1 -18.63,-52.4 -12.96,-34.8 -26.15,-69.5 -39.5,-104.1 11.32,35.3 22.79,70.6 34.49,105.8 6.01,17.5 11.29,35.3 16.46,53.1 l 15.75,53.3 16.1,53.2 14.81,53.5 c 9.69,35.8 20.2,71.3 29.2,107.3 37.87,143.2 72.57,287.3 104.74,432 33.43,144.4 62.88,289.7 92.44,435 14.89,72.6 29.08,145.4 42.86,218.2 14.51,72.8 27.8,145.7 41.45,218.6"
         style="fill:#ff9a6c;fill-opacity:1;fill-rule:nonzero;stroke:none"
         id="path226" />
      <path
         d="m 9989.12,12400.2 c -0.61,-1.9 -0.23,-0.5 -0.39,-0.9 h -0.11 -0.22 l -0.42,0.1 -0.86,0.2 -1.7,0.3 c -1.12,0.2 -2.27,0.3 -3.42,0.4 -2.28,0.3 -4.58,0.1 -6.85,0 -4.52,-0.4 -8.96,-1.4 -13.1,-3.2 -8.29,-3.5 -15.25,-9.6 -19.68,-17.2 -2.11,-3.8 -3.77,-7.8 -4.6,-12.1 -0.77,-4 -0.99,-8.8 -1.33,-13.6 l -2.24,-28.3 -9.59,-113.2 c -3.43,-37.7 -7.1,-75.4 -10.98,-113.1 -3.72,-37.7 -7.92,-75.3 -12.53,-112.9 l -0.08,-0.6 -0.08,-0.3 -36.48,-144.1 c -12.39,-48 -23.85,-96.2 -34.63,-144.6 l -15.95,-72.5 -15.1,-72.8 c -10.02,-48.5 -19.55,-97.2 -30,-145.6 l -0.03,-0.2 -0.13,-0.4 c -18.34,-62.8 -37.72,-125.4 -56.55,-188 -18.87,-62.7 -38.56,-125.1 -58.62,-187.4 -20.13,-62.3 -40.76,-124.4 -61.41,-186.5 l -31.69,-93 c -10.61,-30.9 -22.19,-61.7 -33.88,-92.3 l -1.89,0.7 c 18.33,62.8 35.67,125.9 53.77,188.8 18.37,62.9 36.76,125.7 55.65,188.4 18.97,62.6 38.29,125.1 58.44,187.4 20.19,62.2 39.84,124.7 60.52,186.8 l -0.16,-0.6 c 11.55,48.1 24.01,96.1 35.98,144.2 l 17.9,72.1 17.04,72.3 c 11.23,48.3 21.76,96.7 31.36,145.3 l 29.51,145.7 -0.16,-1 c 3.45,37.7 7.31,75.4 11.63,113 4.19,37.7 8.57,75.3 13.2,112.9 l 14.57,112.6 3.8,28.2 c 0.7,4.6 1.2,9.3 2.56,14.5 1.37,5 3.68,9.6 6.48,13.9 11.28,16.7 34.68,25.5 52.45,16.6"
         style="fill:#ff9a6c;fill-opacity:1;fill-rule:nonzero;stroke:none"
         id="path228" />
      <path
         d="m 10250.9,12626.2 c -13.7,15.7 -28.8,30.1 -45.3,42 -16.1,11.9 -35.1,18.7 -54.3,20.1 -38.6,3.1 -77.3,-17.7 -95.7,-50.6 -2.7,-3.9 -4.1,-8.5 -6.3,-12.7 -1.8,-4.3 -2.9,-9 -4.4,-13.4 l -6.9,-30.4 c -5,-20.2 -9.5,-40.5 -14.9,-60.6 -10.2,-40.4 -21.1,-80.6 -33.98,-120.4 4.73,41.6 11.38,82.7 18.78,123.7 3.5,20.6 7.7,41 11.6,61.4 2,10.3 4.1,20.3 6.4,30.7 1.6,5.4 2.9,11 5,16.3 2.4,5.1 4.2,10.6 7.3,15.4 11.5,19.6 28.8,35.7 49.1,45.7 20.3,9.9 43.5,13.7 65.6,10.4 22.2,-3 43,-13.2 58.9,-28 15.5,-14.7 28.9,-31.2 39.1,-49.6"
         style="fill:#ff9a6c;fill-opacity:1;fill-rule:nonzero;stroke:none"
         id="path230" />
      <path
         d="m 10906.7,10608.4 c -38.7,116.1 -70,234.7 -94.8,354.6 -23.6,120.4 -43.8,240.7 -63.9,361.4 l -28.4,181.1 c -9.3,60.4 -19.4,120.8 -26.5,181.7 -7.1,60.8 -11.6,121.8 -16.6,182.7 -4.6,61 -10.5,121.8 -15.8,182.7 -11.2,121.8 -21.9,243.5 -31.7,365.4 l -14.9,182.8 -7.1,91.2 c -2.7,28.2 -14.2,55.5 -33.8,76.1 l -3.5,4 -4,3.5 c -2.7,2.3 -5.2,4.8 -8,6.9 -5.9,4 -11.4,8.4 -17.9,11.5 -6,3.8 -12.8,6 -19.3,8.8 -3.4,1.1 -6.8,1.9 -10.2,2.9 l -5.1,1.5 -5.3,0.8 c -13.9,2.8 -28.3,2.1 -42.2,0.3 -7,-1.5 -14,-2.6 -20.7,-5.2 -6.7,-1.9 -13.6,-4.9 -20.4,-7.8 -27,-12.1 -51.4,-28.9 -72.1,-50 l -7.8,-7.9 -7,-8.6 c -4.6,-5.8 -9.7,-11.3 -13.6,-17.6 l -12.4,-18.6 -10.9,-19.7 c -28.3,-52.9 -44.8,-112.1 -57,-171.5 -11.7,-59.7 -18.2,-120.4 -22.8,-181.4 l -2,0.1 c 2,61.1 4.9,122.4 14.9,183.1 2.6,15.2 5.8,30.2 8.7,45.3 3,15.1 7.5,29.9 11.2,44.9 4.1,14.9 9.6,29.4 14.3,44.1 l 9,21.5 c 3.1,7.1 6,14.3 9.9,21.1 l 10.9,20.7 12.6,19.8 c 4,6.7 9.2,12.7 14,18.9 l 7.3,9.3 8.2,8.6 c 21.6,23 48,42 76.6,55.4 7.1,3.2 14.2,6.5 22.1,9 7.6,3.1 15.7,4.6 23.7,6.3 16.1,2.2 32.8,3 48.9,-0.2 l 6.1,-0.9 5.9,-1.6 c 4,-1.2 8,-2.1 11.8,-3.4 7.6,-3.1 15.4,-5.8 22.5,-10 7.4,-3.6 13.9,-8.6 20.6,-13.2 3.3,-2.5 6.3,-5.4 9.4,-8 l 4.6,-4.1 4.1,-4.6 c 11.5,-11.7 20.2,-25.9 27.2,-40.8 l 4.6,-11.4 c 1.5,-3.8 2.3,-7.9 3.4,-11.8 2.5,-7.9 3.2,-16.1 4.4,-24.2 2.7,-30.8 4.9,-61 7,-91.6 l 12.9,-182.9 c 8.6,-121.9 16.5,-243.9 23.8,-366 4,-61 7.4,-122 12,-183 l 6.6,-91.4 c 2.3,-30.4 6,-60.7 9.8,-91 4,-30.2 8.4,-60.4 13.7,-90.5 l 16.9,-90.1 33.8,-180.2 c 10.5,-60.3 21.7,-120.3 31.6,-180.7 10.1,-60.3 19.5,-120.6 31,-180.5 22.2,-120 49.9,-238.9 81.6,-357 l -1.9,-0.6"
         style="fill:#ff9a6c;fill-opacity:1;fill-rule:nonzero;stroke:none"
         id="path232" />
      <path
         d="M 18257.1,1863.8 H 2742.92 v 30 H 18257.1 v -30"
         style="fill:#1b1a2e;fill-opacity:1;fill-rule:nonzero;stroke:none"
         id="path234" />
      <path
         d="m 15727.2,16588.4 c -518.2,493.6 -1338.4,473.7 -1832,-44.5 -371.6,-390.1 -452.2,-951.3 -248.3,-1415.6 l -395.9,-433.2 688.7,16.7 c 518.2,-493.6 1338.4,-473.7 1832,44.5 493.6,518.2 473.7,1338.4 -44.5,1832.1"
         style="fill:#ffffff;fill-opacity:1;fill-rule:nonzero;stroke:none"
         id="path236" />
      <path
         d="m 13251,14695.1 c 31.3,37.6 63.2,74.8 95.6,111.4 32.3,36.7 65.1,73 98,109.2 33.1,36 66.3,71.9 100,107.4 33.5,35.6 67.6,70.7 102.3,105.2 -31.3,-37.6 -63.2,-74.7 -95.6,-111.4 -32.3,-36.7 -65.1,-73 -98,-109.1 -33.1,-36.1 -66.2,-72 -99.9,-107.5 -33.6,-35.6 -67.7,-70.7 -102.4,-105.2"
         style="fill:#1b1a2e;fill-opacity:1;fill-rule:nonzero;stroke:none"
         id="path238" />
      <path
         d="m 13939.7,14711.8 c -57.4,-3.7 -114.7,-6.6 -172.1,-8.8 -57.4,-2.3 -114.7,-3.9 -172.1,-5.4 -57.4,-1.3 -114.8,-2.4 -172.2,-2.9 -57.4,-0.6 -114.8,-0.5 -172.3,0.4 57.3,3.7 114.7,6.6 172.1,8.7 57.3,2.4 114.7,4 172.1,5.5 57.4,1.3 114.8,2.5 172.2,2.9 57.4,0.6 114.8,0.5 172.3,-0.4"
         style="fill:#1b1a2e;fill-opacity:1;fill-rule:nonzero;stroke:none"
         id="path240" />
      <path
         d="m 13646.9,15128.3 c -32,72.8 -57.7,148.4 -76.2,225.7 -18.1,77.5 -29.8,156.5 -33.8,236 -7.9,159 13.1,319.7 63,471.2 49.6,151.6 128.3,293.6 229.6,416.9 101.9,122.7 224.9,228.6 364.4,307 69.5,39.3 142.7,72.2 218.3,98.2 75.6,25.8 153.6,44.6 232.7,56.2 158.2,23.2 320.6,17.2 476.7,-17.8 156.2,-34.6 305.6,-99.3 438.3,-188.6 66.3,-44.6 128.6,-95.3 185.9,-151.1 57.2,-55.9 109.7,-116.7 155.6,-182.3 91.8,-131.1 159.1,-279.2 197.4,-434.5 38.5,-155.3 48.1,-317.6 28.4,-476.4 -19.4,-158.8 -69.2,-313.7 -144.9,-454.4 -75.8,-140.8 -177.8,-267.3 -299,-371.4 -121.4,-104 -261.9,-185.4 -412.4,-238.5 -150.5,-53.2 -310.7,-78.5 -470.1,-74.1 -159.5,4.6 -317.9,39 -464.6,100.7 -146.8,61.6 -281.7,150.8 -396.5,260.7 115.8,-108.9 251.2,-196.6 398.1,-256.7 146.8,-60.2 304.7,-93 463.2,-96.1 158.4,-3.4 317.3,22.4 466.2,76 149,53.4 287.7,134.7 407.3,238.2 59.9,51.6 114.5,109.3 163.9,171 49.3,61.7 93.1,127.8 130.5,197.4 74.6,139.2 123.5,292.3 142.4,449.2 19.2,156.8 9.4,317.1 -28.8,470.3 -38.1,153.3 -104.7,299.3 -195.5,428.4 -45.2,64.8 -96.9,124.9 -153.3,180.1 -56.5,55.2 -117.8,105.4 -183.3,149.5 -130.8,88.4 -278.2,152.5 -432.4,187 -154,34.8 -314.5,41 -470.9,18.3 -156.3,-22.6 -308.6,-74 -446.6,-151.1 -138.3,-76.9 -260.7,-181.2 -362.4,-302.3 -101.1,-121.8 -179.8,-262.3 -230.1,-412.5 -50.8,-150.1 -73.2,-309.7 -66.8,-468.3 3.3,-79.3 14.2,-158.2 31.6,-235.7 17.8,-77.4 42.8,-153.1 74.1,-226.2"
         style="fill:#1b1a2e;fill-opacity:1;fill-rule:nonzero;stroke:none"
         id="path242" />
      <path
         d="m 15364.5,15651.6 c 0,-291.7 -236.5,-528.2 -528.3,-528.2 -291.7,0 -528.2,236.5 -528.2,528.2 0,291.8 236.5,528.3 528.2,528.3 291.8,0 528.3,-236.5 528.3,-528.3"
         style="fill:#1f4068;fill-opacity:1;fill-rule:nonzero;stroke:none"
         id="path244" />
      <path
         d="m 15111.9,15412.2 c -3.8,0 -7.6,1.5 -10.6,4.4 -70.8,70.8 -164.9,109.8 -265.1,109.8 -100.1,0 -194.3,-39 -265.1,-109.8 -5.8,-5.8 -15.3,-5.8 -21.2,0 -5.8,5.9 -5.8,15.4 0,21.2 76.5,76.5 178.2,118.6 286.3,118.6 108.2,0 209.9,-42.1 286.3,-118.6 5.9,-5.8 5.9,-15.3 0,-21.2 -2.9,-2.9 -6.7,-4.4 -10.6,-4.4"
         style="fill:#ffffff;fill-opacity:1;fill-rule:nonzero;stroke:none"
         id="path246" />
      <path
         d="m 14680.5,15825 c 0,-28.2 -22.9,-51.1 -51.1,-51.1 -28.2,0 -51,22.9 -51,51.1 0,28.2 22.8,51.1 51,51.1 28.2,0 51.1,-22.9 51.1,-51.1"
         style="fill:#ffffff;fill-opacity:1;fill-rule:nonzero;stroke:none"
         id="path248" />
      <path
         d="m 15094.1,15825 c 0,-28.2 -22.9,-51.1 -51.1,-51.1 -28.2,0 -51,22.9 -51,51.1 0,28.2 22.8,51.1 51,51.1 28.2,0 51.1,-22.9 51.1,-51.1"
         style="fill:#ffffff;fill-opacity:1;fill-rule:nonzero;stroke:none"
         id="path250" />
      <path
         d="m 5497.79,15842 c 382.18,364 987.12,349.3 1351.17,-32.8 274.04,-287.7 333.48,-701.6 183.1,-1044 l 291.97,-319.5 -507.89,12.3 c -382.18,-364.1 -987.12,-349.4 -1351.17,32.8 -364.06,382.2 -349.36,987.1 32.82,1351.2"
         style="fill:#ffffff;fill-opacity:1;fill-rule:nonzero;stroke:none"
         id="path252" />
      <path
         d="m 7324.03,14445.7 c -23.09,27.7 -46.58,55.1 -70.49,82.1 -23.83,27.1 -48.02,53.9 -72.29,80.5 -24.4,26.6 -48.87,53.1 -73.71,79.3 -24.75,26.2 -49.91,52.1 -75.48,77.6 23.09,-27.8 46.59,-55.2 70.5,-82.2 23.82,-27.1 48.02,-53.8 72.28,-80.5 24.39,-26.6 48.86,-53.1 73.7,-79.2 24.75,-26.3 49.91,-52.2 75.49,-77.6"
         style="fill:#1b1a2e;fill-opacity:1;fill-rule:nonzero;stroke:none"
         id="path254" />
      <path
         d="m 6816.14,14458 c 42.28,-2.7 84.58,-4.9 126.89,-6.5 42.31,-1.7 84.63,-2.9 126.95,-4 42.32,-1 84.65,-1.8 127,-2.1 42.33,-0.5 84.69,-0.4 127.05,0.3 -42.28,2.7 -84.58,4.8 -126.89,6.4 -42.31,1.7 -84.63,2.9 -126.95,4.1 -42.32,0.9 -84.65,1.7 -127,2.1 -42.33,0.5 -84.68,0.3 -127.05,-0.3"
         style="fill:#1b1a2e;fill-opacity:1;fill-rule:nonzero;stroke:none"
         id="path256" />
      <path
         d="m 7032.06,14765.2 c 23.59,53.7 42.52,109.4 56.23,166.4 13.33,57.2 21.95,115.4 24.88,174.1 5.86,117.3 -9.67,235.7 -46.42,347.5 -36.63,111.8 -94.63,216.5 -169.36,307.5 -75.16,90.5 -165.91,168.6 -268.72,226.4 -51.29,29 -105.27,53.3 -161.02,72.4 -55.77,19.1 -113.32,32.9 -171.65,41.5 -116.65,17.1 -236.45,12.7 -351.55,-13.1 -115.19,-25.6 -225.38,-73.3 -323.24,-139.1 -48.96,-32.9 -94.86,-70.4 -137.12,-111.5 -42.22,-41.2 -80.96,-86.1 -114.75,-134.5 -67.75,-96.7 -117.38,-205.9 -145.64,-320.4 -28.37,-114.6 -35.47,-234.3 -20.94,-351.3 14.3,-117.2 51.02,-231.4 106.91,-335.2 55.87,-103.8 131.11,-197.1 220.49,-273.9 89.51,-76.7 193.13,-136.7 304.15,-175.9 110.98,-39.3 229.17,-57.9 346.76,-54.7 117.59,3.4 234.38,28.8 342.61,74.3 108.31,45.5 207.75,111.2 292.46,192.3 -85.44,-80.3 -185.32,-145.1 -293.67,-189.3 -108.27,-44.4 -224.71,-68.6 -341.56,-70.9 -116.83,-2.5 -234.03,16.5 -343.85,56 -109.88,39.4 -212.19,99.4 -300.39,175.7 -44.17,38.1 -84.44,80.6 -120.86,126.1 -36.38,45.5 -68.73,94.3 -96.25,145.6 -55.06,102.7 -91.15,215.6 -105.08,331.3 -14.15,115.7 -6.93,233.9 21.26,346.9 28.08,113 77.24,220.7 144.22,315.9 33.3,47.8 71.41,92.2 113.03,132.9 41.64,40.7 86.89,77.7 135.16,110.2 96.47,65.2 205.18,112.5 318.9,137.9 113.65,25.7 232.01,30.3 347.33,13.5 115.32,-16.7 227.58,-54.5 329.37,-111.4 102.03,-56.7 192.31,-133.6 267.31,-223 74.57,-89.8 132.58,-193.4 169.65,-304.2 37.5,-110.7 54.06,-228.4 49.28,-345.4 -2.39,-58.4 -10.46,-116.7 -23.25,-173.8 -13.18,-57.1 -31.58,-112.9 -54.68,-166.8"
         style="fill:#1b1a2e;fill-opacity:1;fill-rule:nonzero;stroke:none"
         id="path258" />
      <path
         d="m 5765.32,15151.1 c 0,-215.1 174.42,-389.5 389.58,-389.5 215.16,0 389.58,174.4 389.58,389.5 0,215.2 -174.42,389.6 -389.58,389.6 -215.16,0 -389.58,-174.4 -389.58,-389.6"
         style="fill:#1f4068;fill-opacity:1;fill-rule:nonzero;stroke:none"
         id="path260" />
      <path
         d="m 5951.56,14974.6 c 2.83,0 5.66,1 7.82,3.2 52.22,52.2 121.66,81 195.52,81 73.85,0 143.29,-28.8 195.52,-81 4.32,-4.3 11.32,-4.3 15.64,0 4.32,4.3 4.32,11.3 0,15.6 -56.4,56.5 -131.39,87.5 -211.16,87.5 -79.77,0 -154.76,-31 -211.16,-87.5 -4.33,-4.3 -4.33,-11.3 0,-15.6 2.16,-2.2 4.99,-3.2 7.82,-3.2"
         style="fill:#ffffff;fill-opacity:1;fill-rule:nonzero;stroke:none"
         id="path262" />
      <path
         d="m 6269.75,15279 c 0,-20.8 16.87,-37.7 37.67,-37.7 20.8,0 37.66,16.9 37.66,37.7 0,20.8 -16.86,37.7 -37.66,37.7 -20.8,0 -37.67,-16.9 -37.67,-37.7"
         style="fill:#ffffff;fill-opacity:1;fill-rule:nonzero;stroke:none"
         id="path264" />
      <path
         d="m 5964.71,15279 c 0,-20.8 16.86,-37.7 37.67,-37.7 20.8,0 37.66,16.9 37.66,37.7 0,20.8 -16.86,37.7 -37.66,37.7 -20.81,0 -37.67,-16.9 -37.67,-37.7"
         style="fill:#ffffff;fill-opacity:1;fill-rule:nonzero;stroke:none"
         id="path266" />
      <path
         d="m 18096.4,11660.4 h -23.5 v 1490.5 h 23.5 v -1490.5"
         style="fill:#1f4168;fill-opacity:1;fill-rule:nonzero;stroke:none"
         id="path268" />
      <path
         d="m 17337.4,12139.5 h -23.5 v 1764.3 h 23.5 v -1764.3"
         style="fill:#1f4168;fill-opacity:1;fill-rule:nonzero;stroke:none"
         id="path270" />
      <path
         d="m 16578.3,11660.4 h -23.5 v 1490.5 h 23.5 v -1490.5"
         style="fill:#1f4168;fill-opacity:1;fill-rule:nonzero;stroke:none"
         id="path272" />
      <path
         d="m 4594.73,11698.4 h -23.5 v 1490.5 h 23.5 v -1490.5"
         style="fill:#1f4168;fill-opacity:1;fill-rule:nonzero;stroke:none"
         id="path274" />
      <path
         d="m 3835.64,12177.6 h -23.49 v 1764.2 h 23.49 v -1764.2"
         style="fill:#1f4168;fill-opacity:1;fill-rule:nonzero;stroke:none"
         id="path276" />
      <path
         d="m 3076.56,11698.4 h -23.5 v 1490.5 h 23.5 v -1490.5"
         style="fill:#1f4168;fill-opacity:1;fill-rule:nonzero;stroke:none"
         id="path278" />
    </g>
  </g>
</svg>
